<svg width="16" height="10" viewBox="0 0 16 10" fill="none" xmlns="http://www.w3.org/2000/svg">
<path d="M14 2V4C15.1046 4 16 3.10457 16 2H14ZM14 2H16C16 0.895431 15.1046 0 14 0V2ZM14 2V0C12.8954 0 12 0.895431 12 2H14ZM12 2C12 3.10457 12.8954 4 14 4V2H12ZM14 8V10C15.1046 10 16 9.10457 16 8H14ZM14 8H16C16 6.89543 15.1046 6 14 6V8ZM14 8V6C12.8954 6 12 6.89543 12 8H14ZM12 8C12 9.10457 12.8954 10 14 10V8H12ZM8 2V4C9.10457 4 10 3.10457 10 2L8 2ZM8 2L10 2C10 0.895431 9.10457 0 8 0V2ZM8 2V0C6.89543 0 6 0.895431 6 2H8ZM6 2C6 3.10457 6.89543 4 8 4V2H6ZM8 8V10C9.10457 10 10 9.10457 10 8H8ZM8 8H10C10 6.89543 9.10457 6 8 6V8ZM8 8V6C6.89543 6 6 6.89543 6 8H8ZM6 8C6 9.10457 6.89543 10 8 10V8H6ZM2 2L2 4C3.10457 4 4 3.10457 4 2H2ZM2 2H4C4 0.895431 3.10457 0 2 0V2ZM2 2V0C0.895431 0 0 0.895431 0 2H2ZM0 2C0 3.10457 0.895431 4 2 4L2 2H0ZM2 8V10C3.10457 10 4 9.10457 4 8H2ZM2 8H4C4 6.89543 3.10457 6 2 6V8ZM2 8V6C0.895431 6 0 6.89543 0 8H2ZM0 8C0 9.10457 0.895431 10 2 10V8H0Z" fill="#C6C6C6"/>
</svg>
