<svg width="29" height="32" viewBox="0 0 29 32" fill="none" xmlns="http://www.w3.org/2000/svg">
<path d="M27.9609 6.97021C22.9659 6.47521 17.9409 6.22021 12.9309 6.22021C9.96094 6.22021 6.99094 6.37022 4.02094 6.67022L0.960938 6.97021" stroke="#787878" stroke-width="1.5" stroke-linecap="round" stroke-linejoin="round"/>
<path d="M9.21094 5.455L9.54094 3.49C9.78094 2.065 9.96094 1 12.4959 1H16.4259C18.9609 1 19.1559 2.125 19.3809 3.505L19.7109 5.455" stroke="#787878" stroke-width="1.5" stroke-linecap="round" stroke-linejoin="round"/>
<path d="M24.7375 11.71L23.7625 26.815C23.5975 29.17 23.4625 31 19.2775 31H9.6475C5.4625 31 5.3275 29.17 5.1625 26.815L4.1875 11.71" stroke="#787878" stroke-width="1.5" stroke-linecap="round" stroke-linejoin="round"/>
<path d="M11.9531 22.75H16.9481" stroke="#787878" stroke-width="1.5" stroke-linecap="round" stroke-linejoin="round"/>
<path d="M10.7109 16.75H18.2109" stroke="#787878" stroke-width="1.5" stroke-linecap="round" stroke-linejoin="round"/>
</svg>
