<svg viewBox="0 0 1000.2529 1004.1441" xmlns="http://www.w3.org/2000/svg"><path d="m104 604.144c-11 0-21 9-21 21s-9 21-20 21-21-10-21-21v-83c0-12 9-21 21-21s20 9 20 21 10 20 21 20 21-9 21-20c0-35-28-63-62-63s-63 28-63 63v83c0 34 28 62 63 62s62-28 62-62c0-12-9-21-21-21zm417-104c11 0 21 9 21 21s9 21 21 21 20-10 20-21c0-35-28-63-62-63s-63 28-63 63v83c0 35 28 63 63 63s62-28 62-63c0-11-9-21-20-21s-21 10-21 21-10 21-21 21-21-9-21-21v-83c0-12 9-21 21-21zm478 159-63-166c-6-17-33-17-39 0l-62 166c-4 11 1 23 12 27s23-1 27-12l10-28h65l11 28c3 8 11 13 19 13 3 0 5 0 8-1 10-4 16-16 12-27zm-99-55 17-45 17 45zm-672-28c-6-16-33-16-39 0l-63 167c-4 10 2 22 13 26 10 4 22-1 26-12l11-28h65l10 28c4 9 11 14 20 14 2 0 5-1 7-2 11-4 16-16 12-26zm-36 111 16-44 17 44zm162-291h-41c-12 0-21 9-21 21v166c0 12 9 21 21 21s20-9 20-21v-62h21c35 0 63-28 63-63s-28-62-63-62zm0 83h-21v-42h21c12 0 21 10 21 21s-9 21-21 21zm417 83c-12 0-21 10-21 21v63h-83v-63c0-11-10-21-21-21s-21 10-21 21v167c0 11 9 21 21 21s21-10 21-21v-63h83v63c0 11 9 21 21 21s21-10 21-21v-167c0-11-10-21-21-21zm-313-145c0 11 10 20 21 20s21-9 21-20v-146h42c11 0 21-10 21-21s-10-21-21-21h-125c-12 0-21 9-21 21s9 21 21 21h41z"/></svg>