<svg width="21" height="19" viewBox="0 0 21 19" fill="none" xmlns="http://www.w3.org/2000/svg">
<path d="M8.53125 0.25C8.0091 0.25 7.50835 0.468818 7.13913 0.858317C6.76992 1.24782 6.5625 1.77609 6.5625 2.32692V3.01923H1.96875C1.4466 3.01923 0.945846 3.23805 0.576634 3.62755C0.207421 4.01705 0 4.54532 0 5.09615V7.01246L9.99337 9.82323C10.3253 9.91649 10.6747 9.91649 11.0066 9.82323L21 7.01246V5.09615C21 4.54532 20.7926 4.01705 20.4234 3.62755C20.0542 3.23805 19.5534 3.01923 19.0312 3.01923H14.4375V2.32692C14.4375 1.77609 14.2301 1.24782 13.8609 0.858317C13.4917 0.468818 12.9909 0.25 12.4688 0.25H8.53125ZM8.53125 1.63462H12.4688C12.6428 1.63462 12.8097 1.70755 12.9328 1.83739C13.0559 1.96722 13.125 2.14331 13.125 2.32692V3.01923H7.875V2.32692C7.875 2.14331 7.94414 1.96722 8.06721 1.83739C8.19028 1.70755 8.3572 1.63462 8.53125 1.63462Z" fill="#787878"/>
<path d="M0 16.1731C0 16.7239 0.207421 17.2522 0.576634 17.6417C0.945846 18.0312 1.4466 18.25 1.96875 18.25H19.0312C19.5534 18.25 20.0542 18.0312 20.4234 17.6417C20.7926 17.2522 21 16.7239 21 16.1731V8.35L10.6693 11.2535C10.5584 11.2848 10.4416 11.2848 10.3307 11.2535L0 8.35V16.1731Z" fill="#787878"/>
</svg>
