<svg width="21" height="18" viewBox="0 0 21 18" fill="none" xmlns="http://www.w3.org/2000/svg">
<path d="M8.53125 0C8.0091 0 7.50835 0.218818 7.13913 0.608317C6.76992 0.997815 6.5625 1.52609 6.5625 2.07692V2.76923H1.96875C1.4466 2.76923 0.945846 2.98805 0.576634 3.37755C0.207421 3.76705 0 4.29532 0 4.84615V6.76246L9.99337 9.57323C10.3253 9.66649 10.6747 9.66649 11.0066 9.57323L21 6.76246V4.84615C21 4.29532 20.7926 3.76705 20.4234 3.37755C20.0542 2.98805 19.5534 2.76923 19.0312 2.76923H14.4375V2.07692C14.4375 1.52609 14.2301 0.997815 13.8609 0.608317C13.4917 0.218818 12.9909 0 12.4688 0H8.53125ZM8.53125 1.38462H12.4688C12.6428 1.38462 12.8097 1.45755 12.9328 1.58739C13.0559 1.71722 13.125 1.89331 13.125 2.07692V2.76923H7.875V2.07692C7.875 1.89331 7.94414 1.71722 8.06721 1.58739C8.19028 1.45755 8.3572 1.38462 8.53125 1.38462Z" fill="#0047FF"/>
<path d="M0 15.9231C0 16.4739 0.207421 17.0022 0.576634 17.3917C0.945846 17.7812 1.4466 18 1.96875 18H19.0312C19.5534 18 20.0542 17.7812 20.4234 17.3917C20.7926 17.0022 21 16.4739 21 15.9231V8.1L10.6693 11.0035C10.5584 11.0348 10.4416 11.0348 10.3307 11.0035L0 8.1V15.9231Z" fill="#0047FF"/>
</svg>
