<svg width="60" height="60" viewBox="0 0 60 60" fill="none" xmlns="http://www.w3.org/2000/svg">
<path d="M1.73941 51.0303L1.67941 51.0903C0.869414 49.3203 0.359414 47.3103 0.149414 45.0903C0.359414 47.2803 0.929414 49.2603 1.73941 51.0303Z" fill="#787878" fill-opacity="0.49"/>
<path d="M21.0004 25.1404C24.9437 25.1404 28.1404 21.9437 28.1404 18.0004C28.1404 14.057 24.9437 10.8604 21.0004 10.8604C17.057 10.8604 13.8604 14.057 13.8604 18.0004C13.8604 21.9437 17.057 25.1404 21.0004 25.1404Z" fill="#0047FF"/>
<path d="M42.57 0H17.43C6.51 0 0 6.51 0 17.43V42.57C0 45.84 0.57 48.69 1.68 51.09C4.26 56.79 9.78 60 17.43 60H42.57C53.49 60 60 53.49 60 42.57V35.7V17.43C60 6.51 53.49 0 42.57 0ZM55.11 31.5C52.77 29.49 48.99 29.49 46.65 31.5L34.17 42.21C31.83 44.22 28.05 44.22 25.71 42.21L24.69 41.37C22.56 39.51 19.17 39.33 16.77 40.95L5.55 48.48C4.89 46.8 4.5 44.85 4.5 42.57V17.43C4.5 8.97 8.97 4.5 17.43 4.5H42.57C51.03 4.5 55.5 8.97 55.5 17.43V31.83L55.11 31.5Z" fill="#0047FF"/>
</svg>
