<svg width="73" height="75" viewBox="0 0 73 75" fill="none" xmlns="http://www.w3.org/2000/svg">
<path d="M3.06422 63.1797L2.99251 63.2529C2.02451 61.0918 1.41503 58.6376 1.16406 55.927C1.41503 58.601 2.09621 61.0185 3.06422 63.1797Z" fill="#787878" fill-opacity="0.49"/>
<path d="M26.0823 31.5682C30.7948 31.5682 34.6151 27.6651 34.6151 22.8504C34.6151 18.0357 30.7948 14.1326 26.0823 14.1326C21.3698 14.1326 17.5496 18.0357 17.5496 22.8504C17.5496 27.6651 21.3698 31.5682 26.0823 31.5682Z" fill="#0047FF"/>
<path d="M51.8595 0.872681H21.8156C8.76547 0.872681 0.985596 8.82129 0.985596 22.1544V52.85C0.985596 56.8426 1.66678 60.3224 2.99331 63.2528C6.07657 70.2124 12.6733 74.1318 21.8156 74.1318H51.8595C64.9096 74.1318 72.6895 66.1832 72.6895 52.85V44.4618V22.1544C72.6895 8.82129 64.9096 0.872681 51.8595 0.872681ZM66.8456 39.3337C64.0492 36.8795 59.5318 36.8795 56.7354 39.3337L41.821 52.4105C39.0245 54.8646 34.5072 54.8646 31.7107 52.4105L30.4918 51.3848C27.9463 49.1138 23.895 48.894 21.0268 50.872L7.61821 60.066C6.82946 58.0148 6.36339 55.6339 6.36339 52.85V22.1544C6.36339 11.8249 11.7053 6.36711 21.8156 6.36711H51.8595C61.9698 6.36711 67.3117 11.8249 67.3117 22.1544V39.7366L66.8456 39.3337Z" fill="#0047FF"/>
</svg>
