<svg width="36" height="30" viewBox="0 0 36 30" fill="none" xmlns="http://www.w3.org/2000/svg">
<path d="M24.4597 21.5521L18.3607 15.4531L12.2617 21.5521" stroke="black" stroke-opacity="0.4" stroke-width="1.52475" stroke-linecap="round" stroke-linejoin="round"/>
<path d="M18.3594 15.4531V29.1759" stroke="black" stroke-opacity="0.4" stroke-width="1.52475" stroke-linecap="round" stroke-linejoin="round"/>
<path d="M31.1512 25.1966C32.6384 24.3858 33.8132 23.1029 34.4902 21.5503C35.1673 19.9977 35.308 18.2639 34.8902 16.6224C34.4724 14.981 33.5199 13.5254 32.183 12.4854C30.846 11.4454 29.2008 10.8803 27.507 10.8791H25.5859C25.1243 9.09403 24.2641 7.43676 23.0699 6.03194C21.8757 4.62713 20.3786 3.51131 18.6911 2.76839C17.0036 2.02546 15.1696 1.67476 13.327 1.74265C11.4845 1.81053 9.68127 2.29524 8.053 3.16034C6.42473 4.02543 5.01376 5.24839 3.92617 6.73728C2.83858 8.22617 2.10267 9.94224 1.77377 11.7565C1.44486 13.5707 1.53152 15.4359 2.02723 17.2118C2.52294 18.9878 3.4148 20.6282 4.63576 22.0098" stroke="black" stroke-opacity="0.4" stroke-width="1.52475" stroke-linecap="round" stroke-linejoin="round"/>
<path d="M24.4597 21.5521L18.3607 15.4531L12.2617 21.5521" stroke="black" stroke-opacity="0.4" stroke-width="1.52475" stroke-linecap="round" stroke-linejoin="round"/>
</svg>
