<svg width="25" height="24" viewBox="0 0 25 24" fill="none" xmlns="http://www.w3.org/2000/svg">
<path d="M5.83644 18.8374C5.62947 18.796 5.4639 18.7546 5.25693 18.6719C5.04997 18.5891 4.88439 18.5477 4.71882 18.4649C4.34628 18.2993 4.01514 18.0923 3.68399 17.844C3.0217 17.3887 2.48359 16.7678 2.06966 16.0227C1.65573 15.319 1.40737 14.4911 1.36597 13.7047C1.32458 13.2907 1.36597 12.9182 1.40737 12.5043C1.44876 12.2973 1.49015 12.1317 1.53155 11.9248C1.57294 11.7178 1.65573 11.5522 1.69712 11.3453L1.73851 11.9248C1.73851 12.1317 1.77991 12.2973 1.8213 12.5043C1.86269 12.8768 1.94548 13.2493 2.02827 13.5805C2.19384 14.2842 2.4422 14.9465 2.81474 15.5674C3.18727 16.1883 3.60121 16.7678 4.13932 17.3059C4.38768 17.5542 4.67743 17.8026 4.96718 18.051C5.09136 18.1751 5.25693 18.2993 5.42251 18.4235L5.83644 18.8374ZM5.71226 20.3276C5.58808 20.4104 5.42251 20.4518 5.25693 20.4932C5.09136 20.5345 4.96718 20.5759 4.80161 20.5759C4.51186 20.6173 4.18071 20.6587 3.84957 20.6173C3.22867 20.5759 2.56638 20.4104 2.02827 20.1206C1.44876 19.8309 0.952043 19.3755 0.620898 18.8374C0.455325 18.5891 0.289752 18.2993 0.165573 18.0096C0.12418 17.8854 0.0827863 17.7198 0.0413931 17.5542C0.0413931 17.4301 0 17.3059 0 17.1403C0.12418 17.2645 0.206966 17.3887 0.289752 17.4714C0.413932 17.5956 0.496718 17.7198 0.579504 17.8026C0.78647 18.0096 0.952043 18.2165 1.15901 18.3821C1.57294 18.7546 1.98687 19.0858 2.48359 19.3341C2.93892 19.5825 3.47703 19.7895 3.97374 19.955C4.2221 20.0378 4.51186 20.0792 4.80161 20.162C4.92579 20.2034 5.09136 20.2034 5.21554 20.2448C5.42251 20.2862 5.54669 20.2862 5.71226 20.3276ZM15.0671 0.210495C15.2741 0.251888 15.4397 0.334674 15.6466 0.41746C15.8536 0.500247 16.0192 0.583033 16.1847 0.665819C16.5573 0.872785 16.8884 1.07975 17.2196 1.32811C17.8818 1.82483 18.42 2.48712 18.7925 3.2322C19.165 3.97727 19.372 4.80514 19.372 5.59161C19.372 6.00554 19.3306 6.37808 19.2478 6.79201C19.2064 6.99897 19.165 7.16455 19.0823 7.37151C18.9995 7.57848 18.9581 7.74405 18.8753 7.90962L18.8339 7.33012C18.8339 7.12315 18.8339 6.95758 18.7925 6.75062L18.6683 5.633C18.5441 4.92932 18.2958 4.22563 17.9646 3.56334C17.6335 2.90105 17.2196 2.32155 16.7228 1.78344C16.4745 1.49368 16.1847 1.24532 15.9364 0.955572C15.8122 0.831392 15.6466 0.707213 15.481 0.583033L15.0671 0.210495ZM18.6683 0.0449219C18.8339 0.086315 18.9581 0.127708 19.0823 0.210495C19.2064 0.251888 19.372 0.334674 19.4962 0.41746C19.7445 0.583033 19.9929 0.748606 20.2413 0.955572C20.6966 1.3695 21.0691 1.86622 21.2761 2.44573C21.5245 3.02523 21.6072 3.64613 21.5245 4.26703C21.4831 4.55678 21.4003 4.84653 21.3175 5.13628C21.2761 5.26046 21.1933 5.42603 21.1519 5.55021C21.0691 5.67439 21.0277 5.79857 20.9036 5.92275V5.50882V5.09489C20.9036 4.80514 20.8622 4.55678 20.8622 4.30842C20.7794 3.77031 20.6966 3.27359 20.4896 2.81826C20.2827 2.32155 20.0343 1.90761 19.7445 1.45229C19.579 1.24532 19.4134 0.996965 19.2478 0.789999C19.165 0.66582 19.0823 0.583033 18.9581 0.458854C18.8753 0.251888 18.7511 0.127708 18.6683 0.0449219Z" fill="#42ADE2"/>
<path d="M3.31149 6.21247C2.48363 6.58501 2.19388 7.57844 2.56641 8.40631L7.78195 19.2927L10.6795 17.9267L5.46394 6.99894C5.0914 6.17108 4.13936 5.79854 3.31149 6.21247ZM17.0126 14.8636L20.0757 13.4149L14.1151 0.996931C13.7012 0.169068 12.7077 -0.203471 11.8385 0.210461C11.0106 0.624392 10.6381 1.61783 11.052 2.48709L17.0126 14.8636Z" fill="#FFDD67"/>
<path d="M11.8798 0.169101C11.797 0.210494 11.7143 0.251887 11.6315 0.334673C12.4179 0.127707 13.2458 0.500246 13.6183 1.24532L19.579 13.6633L20.1171 13.4149L14.1565 0.996964C13.7425 0.127708 12.7491 -0.244831 11.8798 0.169101Z" fill="#EBA352"/>
<path d="M10.6794 17.8854L13.8667 16.3538L7.78191 3.68753C7.36798 2.81828 6.29176 2.40435 5.4225 2.81828C4.55324 3.23221 4.18071 4.30843 4.59464 5.17769L10.6794 17.8854Z" fill="#FFDD67"/>
<path d="M5.42243 2.85963C5.33965 2.90103 5.25686 2.94242 5.17407 3.02521C5.96054 2.81824 6.87119 3.19078 7.24373 3.97725L11.0105 11.8833L11.9212 12.4215L7.78184 3.72889C7.36791 2.81824 6.33308 2.4457 5.42243 2.85963Z" fill="#EBA352"/>
<path d="M13.37 15.3604L16.5573 13.8289L10.4725 1.16256C10.0585 0.293301 8.98231 -0.120631 8.11305 0.334694C7.2438 0.748626 6.87126 1.82485 7.28519 2.69411L13.37 15.3604Z" fill="#FFDD67"/>
<path d="M8.11308 0.293289C8.03029 0.334683 7.9475 0.417469 7.86472 0.458862C8.65119 0.251896 9.56184 0.624435 9.93438 1.41091L14.1979 10.3518L15.1085 10.8899L10.4725 1.16255C10.0586 0.251896 8.98233 -0.120642 8.11308 0.293289ZM3.31147 6.21251C3.22868 6.25391 3.1459 6.2953 3.06311 6.37809C3.80819 6.17112 4.59466 6.54366 4.9258 7.28874L8.03029 13.7875L8.94094 14.3256L5.46391 7.04038C5.09138 6.17112 4.13933 5.79858 3.31147 6.21251Z" fill="#EBA352"/>
<path d="M24.3392 4.97069C23.2216 4.10143 21.4003 5.05348 20.4896 8.03378C19.8687 10.1034 19.786 10.7243 18.4614 11.3452L17.7163 9.81369C17.7163 9.81369 5.96064 15.4846 6.41597 16.3952C6.41597 16.3952 7.82334 20.7829 10.2241 22.8111C13.784 25.8742 22.104 22.6042 22.4765 14.6981C22.6835 10.1034 25.5396 5.92273 24.3392 4.97069Z" fill="#FFDD67"/>
<path d="M24.3391 4.97072C24.1322 4.80515 23.8838 4.72236 23.6354 4.68097C23.6768 4.72236 23.7596 4.72236 23.801 4.76376C25.0428 5.7158 23.7596 7.90964 23.0559 9.89651C22.4764 11.4694 21.9797 13.0838 22.0625 14.6567C22.3937 21.528 15.481 24.798 11.3417 23.5563C15.3982 25.2534 22.9318 22.0247 22.6006 14.8637C22.5178 13.2907 22.9732 11.7592 23.5941 10.1035C24.2563 8.1166 25.5395 5.92276 24.3391 4.97072Z" fill="#EBA352"/>
<path d="M18.8339 11.1797C16.2675 11.4694 12.5007 15.1534 15.1499 19.1686C13.2044 15.112 16.3917 12.3801 18.4199 11.428C18.6269 11.2625 18.8339 11.1797 18.8339 11.1797Z" fill="#EBA352"/>
</svg>
