<svg width="21" height="21" viewBox="0 0 21 21" fill="none" xmlns="http://www.w3.org/2000/svg">
<path d="M19.6135 6.31051L12.852 0.808518C11.5306 -0.26248 9.46603 -0.27298 8.15502 0.798019L1.39348 6.31051C0.423122 7.09801 -0.165286 8.67301 0.0411729 9.91201L1.34187 17.829C1.64123 19.6035 3.26193 21 5.02716 21H15.9695C17.7141 21 19.3657 19.572 19.6651 17.8185L20.9658 9.90151C21.1516 8.67301 20.5632 7.09801 19.6135 6.31051ZM11.2725 16.8C11.2725 17.2305 10.9216 17.5875 10.4983 17.5875C10.0751 17.5875 9.72411 17.2305 9.72411 16.8V13.65C9.72411 13.2195 10.0751 12.8625 10.4983 12.8625C10.9216 12.8625 11.2725 13.2195 11.2725 13.65V16.8Z" fill="#787878"/>
</svg>
