<svg width="30" height="32" viewBox="0 0 30 32" fill="none" xmlns="http://www.w3.org/2000/svg">
<path d="M21.285 0.584961H8.715C3.255 0.584961 0 3.98962 0 9.70065V22.8486C0 24.5588 0.285 26.0493 0.84 27.3044C2.13 30.2855 4.89 31.9643 8.715 31.9643H21.285C26.745 31.9643 30 28.5596 30 22.8486V19.2556V9.70065C30 3.98962 26.745 0.584961 21.285 0.584961ZM27.555 17.0591C26.385 16.0079 24.495 16.0079 23.325 17.0591L17.085 22.6603C15.915 23.7115 14.025 23.7115 12.855 22.6603L12.345 22.221C11.28 21.2482 9.585 21.1541 8.385 22.0013L2.775 25.9394C2.445 25.0608 2.25 24.041 2.25 22.8486V9.70065C2.25 5.27617 4.485 2.93841 8.715 2.93841H21.285C25.515 2.93841 27.75 5.27617 27.75 9.70065V17.2317L27.555 17.0591Z" fill="#0047FF"/>
</svg>
