<svg width="29" height="21" viewBox="0 0 29 21" fill="none" xmlns="http://www.w3.org/2000/svg">
<g clip-path="url(#clip0_2064_5392)">
<path d="M0.9375 0.125H28.9375V6.79167H0.9375V0.125Z" fill="#FF9933"/>
<path d="M0.9375 6.79297H28.9375V13.4596H0.9375V6.79297Z" fill="white"/>
<path d="M0.9375 13.457H28.9375V20.1237H0.9375V13.457Z" fill="#128807"/>
<path d="M14.9406 12.7904C16.487 12.7904 17.7406 11.5965 17.7406 10.1237C17.7406 8.65094 16.487 7.45703 14.9406 7.45703C13.3942 7.45703 12.1406 8.65094 12.1406 10.1237C12.1406 11.5965 13.3942 12.7904 14.9406 12.7904Z" fill="#000088"/>
<path d="M14.9383 12.4557C16.2914 12.4557 17.3883 11.4111 17.3883 10.1224C17.3883 8.83373 16.2914 7.78906 14.9383 7.78906C13.5852 7.78906 12.4883 8.83373 12.4883 10.1224C12.4883 11.4111 13.5852 12.4557 14.9383 12.4557Z" fill="white"/>
<path d="M14.9392 10.5896C15.2098 10.5896 15.4292 10.3806 15.4292 10.1229C15.4292 9.86518 15.2098 9.65625 14.9392 9.65625C14.6686 9.65625 14.4492 9.86518 14.4492 10.1229C14.4492 10.3806 14.6686 10.5896 14.9392 10.5896Z" fill="#000088"/>
<path d="M17.3537 10.5476C17.4227 10.5562 17.486 10.51 17.4951 10.4442C17.5042 10.3785 17.4556 10.3183 17.3866 10.3096C17.3176 10.301 17.2544 10.3472 17.2453 10.4129C17.2362 10.4786 17.2848 10.5389 17.3537 10.5476Z" fill="#000088"/>
<path d="M14.9395 12.4583L15.0235 11.0583L14.9395 10.3916L14.8555 11.0583L14.9395 12.4583Z" fill="#000088"/>
<path d="M17.1575 11.129C17.2212 11.1538 17.2949 11.1239 17.3221 11.0621C17.3493 11.0003 17.3197 10.9301 17.256 10.9053C17.1923 10.8805 17.1186 10.9104 17.0914 10.9722C17.0642 11.0339 17.0938 11.1041 17.1575 11.129Z" fill="#000088"/>
<path d="M14.3085 12.3781L14.771 11.0446L14.8754 10.3802L14.614 11.0048L14.3085 12.3781Z" fill="#000088"/>
<path d="M16.8105 11.6444C16.8651 11.6841 16.9442 11.6733 16.9872 11.6202C17.0301 11.567 17.0207 11.4917 16.9661 11.4519C16.9115 11.4121 16.8324 11.423 16.7894 11.4761C16.7464 11.5292 16.7559 11.6046 16.8105 11.6444Z" fill="#000088"/>
<path d="M13.7169 12.1482L14.5252 10.9733L14.8054 10.3563L14.3832 10.8954L13.7169 12.1482Z" fill="#000088"/>
<path d="M16.327 12.0518C16.3689 12.1039 16.448 12.113 16.5037 12.0721C16.5594 12.0313 16.5707 11.956 16.5289 11.9039C16.487 11.8518 16.4079 11.8427 16.3522 11.8835C16.2965 11.9244 16.2852 11.9997 16.327 12.0518Z" fill="#000088"/>
<path d="M13.2051 11.7739L14.3044 10.8379L14.7418 10.3104L14.1879 10.727L13.2051 11.7739Z" fill="#000088"/>
<path d="M15.7681 12.3266C15.7954 12.3884 15.8691 12.4185 15.9328 12.3938C15.9964 12.369 16.0259 12.2988 15.9986 12.237C15.9713 12.1751 15.8976 12.1451 15.834 12.1698C15.7703 12.1946 15.7409 12.2648 15.7681 12.3266Z" fill="#000088"/>
<path d="M12.8263 11.2884L14.141 10.6617L14.7033 10.2585L14.0547 10.5197L12.8263 11.2884Z" fill="#000088"/>
<path d="M15.1373 12.4548C15.1471 12.5212 15.2104 12.5684 15.2787 12.5604C15.347 12.5524 15.3945 12.4921 15.3848 12.4258C15.3751 12.3594 15.3118 12.3122 15.2434 12.3202C15.1751 12.3282 15.1276 12.3885 15.1373 12.4548Z" fill="#000088"/>
<path d="M12.5768 10.7277L14.0182 10.4488L14.6711 10.198L13.9729 10.289L12.5768 10.7277Z" fill="#000088"/>
<path d="M14.4942 12.4212C14.4858 12.4863 14.5355 12.5466 14.6051 12.5559C14.6748 12.5651 14.7381 12.5199 14.7465 12.4548C14.7549 12.3897 14.7052 12.3294 14.6356 12.3201C14.5659 12.3109 14.5026 12.3561 14.4942 12.4212Z" fill="#000088"/>
<path d="M12.4928 10.1143L13.9625 10.1978L14.661 10.1338L13.9607 10.0572L12.4928 10.1143Z" fill="#000088"/>
<path d="M13.8942 12.2335C13.8679 12.2944 13.8989 12.3646 13.9635 12.3902C14.028 12.4159 14.1018 12.3872 14.1281 12.3262C14.1544 12.2652 14.1234 12.1951 14.0588 12.1694C13.9943 12.1438 13.9206 12.1725 13.8942 12.2335Z" fill="#000088"/>
<path d="M12.581 9.52025L13.9802 9.96029L14.6779 10.0575L14.0228 9.80813L12.581 9.52025Z" fill="#000088"/>
<path d="M13.3495 11.9024C13.3065 11.9556 13.3159 12.0309 13.3705 12.0707C13.4251 12.1104 13.5042 12.0996 13.5472 12.0464C13.5902 11.9933 13.5807 11.918 13.5261 11.8782C13.4715 11.8384 13.3924 11.8493 13.3495 11.9024Z" fill="#000088"/>
<path d="M12.8182 8.9601L14.0465 9.72877L14.6951 9.98996L14.1328 9.58673L12.8182 8.9601Z" fill="#000088"/>
<path d="M12.9274 11.4492C12.8716 11.4901 12.8602 11.5655 12.902 11.6175C12.9437 11.6695 13.0228 11.6785 13.0786 11.6376C13.1344 11.5966 13.1458 11.5213 13.1041 11.4693C13.0623 11.4173 12.9832 11.4083 12.9274 11.4492Z" fill="#000088"/>
<path d="M13.2161 8.47504L14.193 9.52111L14.7478 9.93383L14.3145 9.4054L13.2161 8.47504Z" fill="#000088"/>
<path d="M12.6317 10.9017C12.567 10.9275 12.5357 10.9977 12.5619 11.0585C12.588 11.1193 12.6618 11.1477 12.7265 11.1219C12.7913 11.0961 12.8225 11.0259 12.7964 10.9651C12.7702 10.9043 12.6965 10.8759 12.6317 10.9017Z" fill="#000088"/>
<path d="M13.7186 8.10112L14.3778 9.35329L14.801 9.88939L14.5258 9.27177L13.7186 8.10112Z" fill="#000088"/>
<path d="M12.4954 10.3084C12.4259 10.3174 12.3766 10.3777 12.3852 10.443C12.3938 10.5083 12.4571 10.5538 12.5266 10.5448C12.596 10.5357 12.6454 10.4754 12.6367 10.4101C12.6281 10.3448 12.5648 10.2993 12.4954 10.3084Z" fill="#000088"/>
<path d="M14.3084 7.86706L14.6032 9.23985L14.8662 9.86212L14.7693 9.19725L14.3084 7.86706Z" fill="#000088"/>
<path d="M12.5249 9.69452C12.4566 9.68647 12.3933 9.7337 12.3836 9.80001C12.3738 9.86632 12.4213 9.9266 12.4896 9.93465C12.5579 9.9427 12.6212 9.89546 12.631 9.82915C12.6407 9.76284 12.5932 9.70256 12.5249 9.69452Z" fill="#000088"/>
<path d="M14.9442 7.78726L14.8564 9.18698L14.9228 9.85235L15.003 9.1854L14.9442 7.78726Z" fill="#000088"/>
<path d="M12.7253 9.11421C12.6616 9.08937 12.5879 9.1193 12.5607 9.18105C12.5335 9.2428 12.5631 9.313 12.6268 9.33784C12.6905 9.36268 12.7642 9.33275 12.7914 9.271C12.8187 9.20925 12.7891 9.13905 12.7253 9.11421Z" fill="#000088"/>
<path d="M15.5783 7.86503L15.1158 9.19857L15.0114 9.86293L15.2727 9.23833L15.5783 7.86503Z" fill="#000088"/>
<path d="M13.0685 8.60759C13.0139 8.56781 12.9348 8.57865 12.8918 8.63179C12.8488 8.68494 12.8583 8.76027 12.9129 8.80005C12.9675 8.83982 13.0466 8.82899 13.0895 8.77584C13.1325 8.7227 13.1231 8.64737 13.0685 8.60759Z" fill="#000088"/>
<path d="M16.1622 8.09983L15.3538 9.27474L15.0736 9.89172L15.4957 9.35264L16.1622 8.09983Z" fill="#000088"/>
<path d="M13.5523 8.19616C13.5105 8.14414 13.4314 8.13513 13.3756 8.17603C13.3198 8.21693 13.3084 8.29226 13.3502 8.34428C13.3919 8.3963 13.471 8.40532 13.5268 8.36442C13.5826 8.32351 13.594 8.24818 13.5523 8.19616Z" fill="#000088"/>
<path d="M16.6743 8.47401L15.575 9.41028L15.1372 9.93782L15.6911 9.52097L16.6743 8.47401Z" fill="#000088"/>
<path d="M14.1147 7.9195C14.0874 7.85765 14.0137 7.82758 13.95 7.85232C13.8864 7.87707 13.8569 7.94727 13.8842 8.00911C13.9115 8.07096 13.9852 8.10103 14.0488 8.07629C14.1125 8.05154 14.1419 7.98135 14.1147 7.9195Z" fill="#000088"/>
<path d="M17.0565 8.95772L15.7418 9.58434L15.1795 9.98757L15.8281 9.72638L17.0565 8.95772Z" fill="#000088"/>
<path d="M14.7455 7.79224C14.7358 7.72591 14.6725 7.67864 14.6041 7.68667C14.5358 7.69469 14.4883 7.75497 14.498 7.8213C14.5077 7.88763 14.571 7.9349 14.6394 7.92687C14.7077 7.91885 14.7552 7.85857 14.7455 7.79224Z" fill="#000088"/>
<path d="M17.306 9.51932L15.8646 9.79831L15.2117 10.049L15.9099 9.95803L17.306 9.51932Z" fill="#000088"/>
<path d="M15.3887 7.82629C15.3971 7.76128 15.3473 7.701 15.2775 7.69166C15.2078 7.68231 15.1445 7.72743 15.1362 7.79244C15.1278 7.85745 15.1776 7.91773 15.2474 7.92708C15.3171 7.93643 15.3804 7.8913 15.3887 7.82629Z" fill="#000088"/>
<path d="M17.3897 10.1325L15.9201 10.0486L15.2217 10.1106L15.922 10.1867L17.3897 10.1325Z" fill="#000088"/>
<path d="M15.9966 8.01029C16.0228 7.94943 15.9917 7.87923 15.927 7.85351C15.8623 7.82778 15.7886 7.85627 15.7623 7.91713C15.7361 7.978 15.7673 8.0482 15.832 8.07392C15.8967 8.09965 15.9704 8.07116 15.9966 8.01029Z" fill="#000088"/>
<path d="M17.3098 10.7244L15.9102 10.2842L15.2125 10.1861L15.868 10.4354L17.3098 10.7244Z" fill="#000088"/>
<path d="M16.535 8.34444C16.5771 8.29215 16.5661 8.21682 16.5106 8.17619C16.4551 8.13556 16.376 8.14501 16.334 8.19731C16.2919 8.2496 16.3028 8.32493 16.3583 8.36556C16.4138 8.40619 16.4929 8.39673 16.535 8.34444Z" fill="#000088"/>
<path d="M17.0625 11.2898L15.8301 10.5202L15.1821 10.2548L15.7472 10.6571L17.0625 11.2898Z" fill="#000088"/>
<path d="M16.9649 8.79861C17.0198 8.75855 17.0297 8.68322 16.987 8.63035C16.9443 8.57749 16.8652 8.5671 16.8103 8.60716C16.7554 8.64722 16.7455 8.72255 16.7882 8.77541C16.8309 8.82828 16.91 8.83867 16.9649 8.79861Z" fill="#000088"/>
<path d="M16.6765 11.7739L15.6949 10.7271L15.1407 10.3113L15.5774 10.839L16.6765 11.7739Z" fill="#000088"/>
<path d="M17.2485 9.33747C17.3125 9.31238 17.3426 9.24219 17.3157 9.18068C17.2887 9.11917 17.215 9.08965 17.151 9.11474C17.087 9.13982 17.057 9.21002 17.0839 9.27152C17.1108 9.33303 17.1845 9.36255 17.2485 9.33747Z" fill="#000088"/>
<path d="M16.1625 12.1419L15.4983 10.8892L15.0758 10.3511L15.3544 10.9683L16.1625 12.1419Z" fill="#000088"/>
<path d="M17.381 9.93864C17.4497 9.93026 17.4978 9.86999 17.4884 9.804C17.479 9.73802 17.4157 9.69131 17.347 9.69968C17.2783 9.70806 17.2303 9.76834 17.2396 9.83432C17.249 9.90031 17.3123 9.94701 17.381 9.93864Z" fill="#000088"/>
<path d="M15.5737 12.3751L15.2715 11.002L15.0096 10.3781L15.1116 11.0426L15.5737 12.3751Z" fill="#000088"/>
</g>
<defs>
<clipPath id="clip0_2064_5392">
<rect width="28" height="20" fill="white" transform="translate(0.9375 0.125)"/>
</clipPath>
</defs>
</svg>
