<svg width="20" height="20" viewBox="0 0 20 20" fill="none" xmlns="http://www.w3.org/2000/svg">
<path d="M9.53847 18.8306C9.53847 18.3229 9.95174 17.9113 10.4615 17.9113H17.8462C18.0161 17.9113 18.1538 17.7741 18.1538 17.6048L18.1538 2.89516C18.1538 2.72591 18.0161 2.58871 17.8462 2.58871L10.4615 2.58871C9.95174 2.58871 9.53847 2.1771 9.53847 1.66936C9.53847 1.16161 9.95174 0.75 10.4615 0.75H17.8462C19.0357 0.75 20 1.71042 20 2.89516V17.6048C20 18.7896 19.0357 19.75 17.8462 19.75H10.4615C9.95174 19.75 9.53847 19.3384 9.53847 18.8306Z" fill="#787878"/>
<path d="M14.9066 11.617C14.9066 12.294 14.3556 12.8428 13.6758 12.8428H7.69923C7.671 13.2785 7.63567 13.7139 7.59324 14.1487L7.55673 14.5228C7.49737 15.1311 6.84881 15.4954 6.29543 15.2313C4.04569 14.1574 2.00904 12.688 0.283424 10.8936L0.246553 10.8552C-0.0821844 10.5134 -0.0821844 9.97427 0.246553 9.63242L0.283425 9.59408C2.00904 7.79966 4.04569 6.33019 6.29543 5.25637C6.84881 4.99223 7.49737 5.35653 7.55673 5.96483L7.59324 6.33894C7.63567 6.77377 7.671 7.20911 7.69923 7.6448L13.6758 7.6448C14.3556 7.6448 14.9066 8.19361 14.9066 8.87061V11.617Z" fill="#787878"/>
</svg>
