<svg width="19" height="20" viewBox="0 0 19 20" fill="none" xmlns="http://www.w3.org/2000/svg">
<path d="M17.9984 7.042V3.183C17.9984 1.9845 17.4544 1.5 16.1029 1.5H12.6689C11.3174 1.5 10.7734 1.9845 10.7734 3.183V7.0335C10.7734 8.2405 11.3174 8.7165 12.6689 8.7165H16.1029C17.4544 8.725 17.9984 8.2405 17.9984 7.042Z" stroke="#787878" stroke-width="1.5" stroke-linecap="round" stroke-linejoin="round"/>
<path d="M17.9984 16.6045V13.1705C17.9984 11.819 17.4544 11.275 16.1029 11.275H12.6689C11.3174 11.275 10.7734 11.819 10.7734 13.1705V16.6045C10.7734 17.956 11.3174 18.5 12.6689 18.5H16.1029C17.4544 18.5 17.9984 17.956 17.9984 16.6045Z" stroke="#787878" stroke-width="1.5" stroke-linecap="round" stroke-linejoin="round"/>
<path d="M8.225 7.042V3.183C8.225 1.9845 7.681 1.5 6.3295 1.5H2.8955C1.544 1.5 1 1.9845 1 3.183V7.0335C1 8.2405 1.544 8.7165 2.8955 8.7165H6.3295C7.681 8.725 8.225 8.2405 8.225 7.042Z" stroke="#787878" stroke-width="1.5" stroke-linecap="round" stroke-linejoin="round"/>
<path d="M8.225 16.6045V13.1705C8.225 11.819 7.681 11.275 6.3295 11.275H2.8955C1.544 11.275 1 11.819 1 13.1705V16.6045C1 17.956 1.544 18.5 2.8955 18.5H6.3295C7.681 18.5 8.225 17.956 8.225 16.6045Z" stroke="#787878" stroke-width="1.5" stroke-linecap="round" stroke-linejoin="round"/>
</svg>
