<svg width="151" height="62" viewBox="0 0 151 62" fill="none" xmlns="http://www.w3.org/2000/svg">
<rect width="151" height="62" rx="5" fill="black"/>
<path d="M33.1766 26.168C31.9913 26.168 31.0346 25.7993 30.3066 25.062C29.5786 24.3247 29.2146 23.34 29.2146 22.108V16.06H30.8526V22.136C30.8526 22.9107 31.0626 23.5127 31.4826 23.942C31.9026 24.3713 32.4673 24.586 33.1766 24.586C33.8859 24.586 34.4459 24.3713 34.8566 23.942C35.2766 23.5127 35.4866 22.9107 35.4866 22.136V16.06H37.1246V22.108C37.1246 23.3307 36.7559 24.3153 36.0186 25.062C35.2813 25.7993 34.3339 26.168 33.1766 26.168ZM40.7877 28.926H39.2477V19H40.7877V19.938C41.0024 19.6393 41.3104 19.3873 41.7117 19.182C42.1224 18.9673 42.5657 18.86 43.0417 18.86C43.9937 18.86 44.7917 19.2147 45.4357 19.924C46.0891 20.6333 46.4157 21.492 46.4157 22.5C46.4157 23.508 46.0891 24.3667 45.4357 25.076C44.7917 25.7853 43.9937 26.14 43.0417 26.14C42.5657 26.14 42.1224 26.0373 41.7117 25.832C41.3104 25.6173 41.0024 25.3607 40.7877 25.062V28.926ZM42.7617 24.74C43.3684 24.74 43.8677 24.5253 44.2597 24.096C44.6517 23.6667 44.8477 23.1347 44.8477 22.5C44.8477 21.8653 44.6517 21.3333 44.2597 20.904C43.8677 20.4747 43.3684 20.26 42.7617 20.26C42.1457 20.26 41.6417 20.4747 41.2497 20.904C40.8577 21.3333 40.6617 21.8653 40.6617 22.5C40.6617 23.1347 40.8577 23.6667 41.2497 24.096C41.6417 24.5253 42.1457 24.74 42.7617 24.74ZM48.134 26V15.5H49.674V26H48.134ZM57.6614 25.09C56.9614 25.79 56.0934 26.14 55.0574 26.14C54.0214 26.14 53.1488 25.79 52.4394 25.09C51.7394 24.3807 51.3894 23.5173 51.3894 22.5C51.3894 21.4827 51.7394 20.624 52.4394 19.924C53.1488 19.2147 54.0214 18.86 55.0574 18.86C56.0934 18.86 56.9614 19.2147 57.6614 19.924C58.3708 20.624 58.7254 21.4827 58.7254 22.5C58.7254 23.5173 58.3708 24.3807 57.6614 25.09ZM55.0574 24.712C55.6641 24.712 56.1634 24.502 56.5554 24.082C56.9568 23.6527 57.1574 23.1253 57.1574 22.5C57.1574 21.8747 56.9568 21.352 56.5554 20.932C56.1634 20.5027 55.6641 20.288 55.0574 20.288C54.4414 20.288 53.9328 20.5027 53.5314 20.932C53.1394 21.352 52.9434 21.8747 52.9434 22.5C52.9434 23.1253 53.1394 23.6527 53.5314 24.082C53.9328 24.502 54.4414 24.712 55.0574 24.712ZM63.2943 26.14C62.3423 26.14 61.5396 25.7853 60.8863 25.076C60.2423 24.3667 59.9203 23.508 59.9203 22.5C59.9203 21.492 60.2423 20.6333 60.8863 19.924C61.5396 19.2147 62.3423 18.86 63.2943 18.86C63.7703 18.86 64.2089 18.9673 64.6103 19.182C65.0116 19.3873 65.3196 19.6393 65.5343 19.938V19H67.0743V26H65.5343V25.062C65.3196 25.3607 65.0116 25.6173 64.6103 25.832C64.2089 26.0373 63.7703 26.14 63.2943 26.14ZM62.0763 24.096C62.4683 24.5253 62.9676 24.74 63.5743 24.74C64.1809 24.74 64.6803 24.5253 65.0723 24.096C65.4643 23.6667 65.6603 23.1347 65.6603 22.5C65.6603 21.8653 65.4643 21.3333 65.0723 20.904C64.6803 20.4747 64.1809 20.26 63.5743 20.26C62.9676 20.26 62.4683 20.4747 62.0763 20.904C61.6843 21.3333 61.4883 21.8653 61.4883 22.5C61.4883 23.1347 61.6843 23.6667 62.0763 24.096ZM72.1806 26.14C71.2286 26.14 70.4259 25.7853 69.7726 25.076C69.1286 24.3667 68.8066 23.508 68.8066 22.5C68.8066 21.492 69.1286 20.6333 69.7726 19.924C70.4259 19.2147 71.2286 18.86 72.1806 18.86C72.6566 18.86 73.0953 18.9673 73.4966 19.182C73.8979 19.3873 74.2059 19.6393 74.4206 19.938V15.5H75.9606V26H74.4206V25.062C74.2059 25.3607 73.8979 25.6173 73.4966 25.832C73.0953 26.0373 72.6566 26.14 72.1806 26.14ZM70.9626 24.096C71.3546 24.5253 71.8539 24.74 72.4606 24.74C73.0673 24.74 73.5666 24.5253 73.9586 24.096C74.3506 23.6667 74.5466 23.1347 74.5466 22.5C74.5466 21.8653 74.3506 21.3333 73.9586 20.904C73.5666 20.4747 73.0673 20.26 72.4606 20.26C71.8539 20.26 71.3546 20.4747 70.9626 20.904C70.5706 21.3333 70.3746 21.8653 70.3746 22.5C70.3746 23.1347 70.5706 23.6667 70.9626 24.096ZM82.4119 17.474C82.1319 17.474 81.8892 17.376 81.6839 17.18C81.4785 16.9747 81.3759 16.7273 81.3759 16.438C81.3759 16.158 81.4785 15.92 81.6839 15.724C81.8892 15.5187 82.1319 15.416 82.4119 15.416C82.7012 15.416 82.9439 15.5187 83.1399 15.724C83.3359 15.92 83.4339 16.158 83.4339 16.438C83.4339 16.7273 83.3359 16.9747 83.1399 17.18C82.9439 17.376 82.7012 17.474 82.4119 17.474ZM81.6419 26V19H83.1819V26H81.6419ZM94.3192 26V22.066C94.3192 21.4967 94.2119 21.0533 93.9972 20.736C93.7919 20.4187 93.4839 20.26 93.0732 20.26C92.5786 20.26 92.1819 20.4513 91.8832 20.834C91.5846 21.2167 91.4259 21.7533 91.4072 22.444V26H89.8672V22.066C89.8672 21.4967 89.7599 21.0533 89.5452 20.736C89.3399 20.4187 89.0319 20.26 88.6212 20.26C88.1079 20.26 87.6972 20.4607 87.3892 20.862C87.0906 21.2633 86.9412 21.828 86.9412 22.556V26H85.4012V19H86.9412V19.952C87.3706 19.224 88.0332 18.86 88.9292 18.86C89.9839 18.86 90.7072 19.322 91.0992 20.246C91.2952 19.8073 91.5939 19.4667 91.9952 19.224C92.4059 18.9813 92.8539 18.86 93.3392 18.86C94.1232 18.86 94.7392 19.126 95.1872 19.658C95.6352 20.19 95.8592 20.9087 95.8592 21.814V26H94.3192ZM100.849 26.14C99.897 26.14 99.0943 25.7853 98.441 25.076C97.797 24.3667 97.475 23.508 97.475 22.5C97.475 21.492 97.797 20.6333 98.441 19.924C99.0943 19.2147 99.897 18.86 100.849 18.86C101.325 18.86 101.764 18.9673 102.165 19.182C102.566 19.3873 102.874 19.6393 103.089 19.938V19H104.629V26H103.089V25.062C102.874 25.3607 102.566 25.6173 102.165 25.832C101.764 26.0373 101.325 26.14 100.849 26.14ZM99.631 24.096C100.023 24.5253 100.522 24.74 101.129 24.74C101.736 24.74 102.235 24.5253 102.627 24.096C103.019 23.6667 103.215 23.1347 103.215 22.5C103.215 21.8653 103.019 21.3333 102.627 20.904C102.235 20.4747 101.736 20.26 101.129 20.26C100.522 20.26 100.023 20.4747 99.631 20.904C99.239 21.3333 99.043 21.8653 99.043 22.5C99.043 23.1347 99.239 23.6667 99.631 24.096ZM110.029 29.066C109.077 29.066 108.293 28.8327 107.677 28.366C107.071 27.8993 106.721 27.2927 106.627 26.546H108.139C108.41 27.3487 109.054 27.75 110.071 27.75C110.622 27.75 111.075 27.568 111.429 27.204C111.793 26.8493 111.975 26.3453 111.975 25.692V24.866C111.751 25.1833 111.439 25.4447 111.037 25.65C110.636 25.8553 110.202 25.958 109.735 25.958C108.793 25.958 107.995 25.6173 107.341 24.936C106.697 24.2453 106.375 23.4007 106.375 22.402C106.375 21.4127 106.697 20.5773 107.341 19.896C107.995 19.2053 108.793 18.86 109.735 18.86C110.202 18.86 110.636 18.9627 111.037 19.168C111.439 19.364 111.751 19.6207 111.975 19.938V19H113.515V25.566C113.515 26.7233 113.184 27.596 112.521 28.184C111.868 28.772 111.037 29.066 110.029 29.066ZM108.531 23.942C108.933 24.3433 109.427 24.544 110.015 24.544C110.603 24.544 111.098 24.3433 111.499 23.942C111.901 23.5313 112.101 23.018 112.101 22.402C112.101 21.786 111.901 21.2773 111.499 20.876C111.098 20.4653 110.603 20.26 110.015 20.26C109.427 20.26 108.933 20.4653 108.531 20.876C108.13 21.2773 107.929 21.786 107.929 22.402C107.929 23.018 108.13 23.5313 108.531 23.942ZM118.832 26.14C117.787 26.14 116.928 25.7993 116.256 25.118C115.584 24.4273 115.248 23.5547 115.248 22.5C115.248 21.4453 115.579 20.5773 116.242 19.896C116.905 19.2053 117.773 18.86 118.846 18.86C119.929 18.86 120.801 19.238 121.464 19.994C122.127 20.7407 122.421 21.702 122.346 22.878H116.774C116.793 23.4193 116.998 23.872 117.39 24.236C117.782 24.6 118.281 24.782 118.888 24.782C119.747 24.782 120.335 24.4553 120.652 23.802H122.262C122.047 24.4833 121.637 25.0433 121.03 25.482C120.423 25.9207 119.691 26.14 118.832 26.14ZM118.804 20.148C118.3 20.148 117.866 20.2927 117.502 20.582C117.147 20.862 116.919 21.2633 116.816 21.786H120.694C120.582 21.2447 120.353 20.8387 120.008 20.568C119.663 20.288 119.261 20.148 118.804 20.148ZM16.9842 39.468L18.4962 37.06H19.4482L18.4682 39.118C18.6736 39.2113 18.8416 39.3607 18.9722 39.566C19.1029 39.762 19.1682 39.9813 19.1682 40.224C19.1682 40.5507 19.0516 40.8353 18.8182 41.078C18.5849 41.3113 18.3002 41.428 17.9642 41.428C17.6282 41.428 17.3436 41.3113 17.1102 41.078C16.8769 40.8353 16.7602 40.5507 16.7602 40.224C16.7602 39.9533 16.8349 39.7013 16.9842 39.468ZM19.8822 39.468L21.3942 37.06H22.3462L21.3662 39.118C21.5716 39.2113 21.7396 39.3607 21.8702 39.566C22.0009 39.762 22.0662 39.9813 22.0662 40.224C22.0662 40.5507 21.9496 40.8353 21.7162 41.078C21.4829 41.3113 21.1982 41.428 20.8622 41.428C20.5262 41.428 20.2416 41.3113 20.0082 41.078C19.7749 40.8353 19.6582 40.5507 19.6582 40.224C19.6582 39.9533 19.7329 39.7013 19.8822 39.468ZM25.0407 47V38.586H23.0387L24.2147 37.06H26.5807V47H25.0407ZM28.9666 47L31.7946 43.444H31.6406C30.8286 43.444 30.1053 43.1407 29.4706 42.534C28.8453 41.918 28.5326 41.1573 28.5326 40.252C28.5326 39.3 28.8499 38.502 29.4846 37.858C30.1286 37.214 30.9499 36.892 31.9486 36.892C32.9473 36.892 33.7639 37.214 34.3986 37.858C35.0426 38.502 35.3646 39.2953 35.3646 40.238C35.3646 40.714 35.2713 41.1387 35.0846 41.512C34.9073 41.8853 34.6226 42.324 34.2306 42.828L30.8986 47H28.9666ZM30.6186 41.582C30.9733 41.9367 31.4166 42.114 31.9486 42.114C32.4806 42.114 32.9193 41.9367 33.2646 41.582C33.6193 41.218 33.7966 40.77 33.7966 40.238C33.7966 39.7247 33.6193 39.286 33.2646 38.922C32.9099 38.558 32.4713 38.376 31.9486 38.376C31.4259 38.376 30.9873 38.558 30.6326 38.922C30.2779 39.286 30.1006 39.7247 30.1006 40.238C30.1006 40.77 30.2733 41.218 30.6186 41.582ZM43.2349 45.488V47H36.6549V46.44C36.6549 46.0853 36.7063 45.7493 36.8089 45.432C36.9209 45.1053 37.0376 44.8347 37.1589 44.62C37.2803 44.4053 37.4809 44.1673 37.7609 43.906C38.0409 43.6353 38.2556 43.444 38.4049 43.332C38.5543 43.2107 38.8156 43.0147 39.1889 42.744C39.5716 42.4733 39.8143 42.3007 39.9169 42.226C40.5049 41.7967 40.9296 41.4187 41.1909 41.092C41.4523 40.7653 41.5829 40.3733 41.5829 39.916C41.5829 39.4587 41.4429 39.0947 41.1629 38.824C40.8829 38.544 40.4956 38.404 40.0009 38.404C39.4876 38.404 39.0629 38.558 38.7269 38.866C38.3909 39.1647 38.2183 39.5753 38.2089 40.098H36.6549C36.6549 39.1553 36.9723 38.3853 37.6069 37.788C38.2509 37.1907 39.0536 36.892 40.0149 36.892C40.9016 36.892 41.6436 37.1533 42.2409 37.676C42.8383 38.1987 43.1369 38.9313 43.1369 39.874C43.1369 40.6207 42.9643 41.2507 42.6189 41.764C42.2829 42.268 41.7229 42.8 40.9389 43.36C40.8176 43.4533 40.5936 43.612 40.2669 43.836C39.9403 44.06 39.6976 44.2327 39.5389 44.354C39.3896 44.4753 39.2263 44.6433 39.0489 44.858C38.8716 45.0633 38.7503 45.2733 38.6849 45.488H43.2349ZM51.049 46.076C50.377 46.7853 49.5136 47.14 48.459 47.14C47.4043 47.14 46.541 46.7853 45.869 46.076C45.197 45.3573 44.861 44.438 44.861 43.318V40.714C44.861 39.594 45.197 38.6793 45.869 37.97C46.541 37.2513 47.4043 36.892 48.459 36.892C49.5136 36.892 50.377 37.2513 51.049 37.97C51.7303 38.6793 52.071 39.594 52.071 40.714V43.318C52.071 44.438 51.7303 45.3573 51.049 46.076ZM48.459 45.628C49.0843 45.628 49.5836 45.4227 49.957 45.012C50.3396 44.6013 50.531 44.0367 50.531 43.318V40.714C50.531 39.9953 50.3396 39.4307 49.957 39.02C49.5836 38.6093 49.0843 38.404 48.459 38.404C47.843 38.404 47.3436 38.6093 46.961 39.02C46.5876 39.4307 46.401 39.9953 46.401 40.714V43.318C46.401 44.0367 46.5876 44.6013 46.961 45.012C47.3436 45.4227 47.843 45.628 48.459 45.628ZM62.1615 47L60.2715 44.634L58.3815 47H56.5055L59.2915 43.514L56.6595 40H58.4935L60.2575 42.352L62.0215 40H63.8695L61.2375 43.514L64.0235 47H62.1615ZM69.7587 47V38.586H67.7567L68.9327 37.06H71.2987V47H69.7587ZM79.6486 46.076C78.9766 46.7853 78.1132 47.14 77.0586 47.14C76.0039 47.14 75.1406 46.7853 74.4686 46.076C73.7966 45.3573 73.4606 44.438 73.4606 43.318V40.714C73.4606 39.594 73.7966 38.6793 74.4686 37.97C75.1406 37.2513 76.0039 36.892 77.0586 36.892C78.1132 36.892 78.9766 37.2513 79.6486 37.97C80.3299 38.6793 80.6706 39.594 80.6706 40.714V43.318C80.6706 44.438 80.3299 45.3573 79.6486 46.076ZM77.0586 45.628C77.6839 45.628 78.1832 45.4227 78.5566 45.012C78.9392 44.6013 79.1306 44.0367 79.1306 43.318V40.714C79.1306 39.9953 78.9392 39.4307 78.5566 39.02C78.1832 38.6093 77.6839 38.404 77.0586 38.404C76.4426 38.404 75.9432 38.6093 75.5606 39.02C75.1872 39.4307 75.0006 39.9953 75.0006 40.714V43.318C75.0006 44.0367 75.1872 44.6013 75.5606 45.012C75.9432 45.4227 76.4426 45.628 77.0586 45.628ZM85.6362 47.14C84.6469 47.14 83.8302 46.846 83.1862 46.258C82.5422 45.6607 82.2202 44.9047 82.2202 43.99C82.2202 42.8327 82.6916 41.9973 83.6342 41.484C83.0182 41.008 82.7102 40.35 82.7102 39.51C82.7102 38.754 82.9809 38.1287 83.5222 37.634C84.0729 37.1393 84.7776 36.892 85.6362 36.892C86.5042 36.892 87.2089 37.1393 87.7502 37.634C88.3009 38.1193 88.5762 38.7447 88.5762 39.51C88.5762 40.35 88.2682 41.008 87.6522 41.484C88.5949 41.9973 89.0662 42.8327 89.0662 43.99C89.0662 44.914 88.7442 45.67 88.1002 46.258C87.4656 46.846 86.6442 47.14 85.6362 47.14ZM85.6362 45.698C86.2056 45.698 86.6582 45.53 86.9942 45.194C87.3302 44.858 87.4982 44.4473 87.4982 43.962C87.4982 43.4673 87.3302 43.0567 86.9942 42.73C86.6582 42.394 86.2102 42.226 85.6502 42.226C85.0809 42.226 84.6282 42.394 84.2922 42.73C83.9562 43.0567 83.7882 43.4673 83.7882 43.962C83.7882 44.4473 83.9562 44.858 84.2922 45.194C84.6376 45.53 85.0856 45.698 85.6362 45.698ZM85.6362 40.924C86.0656 40.924 86.4109 40.798 86.6722 40.546C86.9429 40.2847 87.0782 39.972 87.0782 39.608C87.0782 39.2253 86.9476 38.9127 86.6862 38.67C86.4249 38.418 86.0749 38.292 85.6362 38.292C85.2162 38.292 84.8709 38.418 84.6002 38.67C84.3389 38.922 84.2082 39.2347 84.2082 39.608C84.2082 39.972 84.3436 40.2847 84.6142 40.546C84.8849 40.798 85.2256 40.924 85.6362 40.924ZM96.8197 46.076C96.1477 46.7853 95.2843 47.14 94.2297 47.14C93.175 47.14 92.3117 46.7853 91.6397 46.076C90.9677 45.3573 90.6317 44.438 90.6317 43.318V40.714C90.6317 39.594 90.9677 38.6793 91.6397 37.97C92.3117 37.2513 93.175 36.892 94.2297 36.892C95.2843 36.892 96.1477 37.2513 96.8197 37.97C97.501 38.6793 97.8417 39.594 97.8417 40.714V43.318C97.8417 44.438 97.501 45.3573 96.8197 46.076ZM94.2297 45.628C94.855 45.628 95.3543 45.4227 95.7277 45.012C96.1103 44.6013 96.3017 44.0367 96.3017 43.318V40.714C96.3017 39.9953 96.1103 39.4307 95.7277 39.02C95.3543 38.6093 94.855 38.404 94.2297 38.404C93.6137 38.404 93.1143 38.6093 92.7317 39.02C92.3583 39.4307 92.1717 39.9953 92.1717 40.714V43.318C92.1717 44.0367 92.3583 44.6013 92.7317 45.012C93.1143 45.4227 93.6137 45.628 94.2297 45.628ZM101.869 38.866L100.357 41.26H99.4053L100.385 39.216C100.189 39.1227 100.021 38.978 99.8813 38.782C99.7507 38.5767 99.6853 38.3527 99.6853 38.11C99.6853 37.774 99.802 37.4893 100.035 37.256C100.278 37.0133 100.563 36.892 100.889 36.892C101.225 36.892 101.51 37.0133 101.743 37.256C101.986 37.4893 102.107 37.774 102.107 38.11C102.107 38.3713 102.028 38.6233 101.869 38.866ZM104.767 38.866L103.255 41.26H102.303L103.283 39.216C103.087 39.1227 102.919 38.978 102.779 38.782C102.649 38.5767 102.583 38.3527 102.583 38.11C102.583 37.774 102.7 37.4893 102.933 37.256C103.176 37.0133 103.461 36.892 103.787 36.892C104.123 36.892 104.408 37.0133 104.641 37.256C104.884 37.4893 105.005 37.774 105.005 38.11C105.005 38.3713 104.926 38.6233 104.767 38.866ZM112.473 47.14C111.643 47.14 110.943 46.9347 110.373 46.524C109.813 46.1133 109.515 45.5627 109.477 44.872H111.073C111.185 45.5627 111.666 45.908 112.515 45.908C112.861 45.908 113.136 45.8473 113.341 45.726C113.547 45.5953 113.649 45.4087 113.649 45.166C113.649 44.9233 113.57 44.732 113.411 44.592C113.253 44.452 112.987 44.3353 112.613 44.242L111.465 43.934C110.271 43.6167 109.673 42.912 109.673 41.82C109.673 41.232 109.911 40.7607 110.387 40.406C110.863 40.042 111.493 39.86 112.277 39.86C113.033 39.86 113.654 40.0513 114.139 40.434C114.625 40.8167 114.895 41.3253 114.951 41.96H113.411C113.262 41.3813 112.879 41.092 112.263 41.092C111.955 41.092 111.708 41.1573 111.521 41.288C111.335 41.4093 111.241 41.582 111.241 41.806C111.241 42.2073 111.554 42.4873 112.179 42.646L113.355 42.954C114.597 43.2713 115.217 43.976 115.217 45.068C115.217 45.7307 114.961 46.244 114.447 46.608C113.943 46.9627 113.285 47.14 112.473 47.14ZM117.697 38.474C117.417 38.474 117.174 38.376 116.969 38.18C116.764 37.9747 116.661 37.7273 116.661 37.438C116.661 37.158 116.764 36.92 116.969 36.724C117.174 36.5187 117.417 36.416 117.697 36.416C117.986 36.416 118.229 36.5187 118.425 36.724C118.621 36.92 118.719 37.158 118.719 37.438C118.719 37.7273 118.621 37.9747 118.425 38.18C118.229 38.376 117.986 38.474 117.697 38.474ZM116.927 47V40H118.467V47H116.927ZM120.21 47V45.782L123.878 41.4H120.266V40H125.866V41.232L122.198 45.6H125.978V47H120.21ZM130.684 47.14C129.639 47.14 128.78 46.7993 128.108 46.118C127.436 45.4273 127.1 44.5547 127.1 43.5C127.1 42.4453 127.432 41.5773 128.094 40.896C128.757 40.2053 129.625 39.86 130.698 39.86C131.781 39.86 132.654 40.238 133.316 40.994C133.979 41.7407 134.273 42.702 134.198 43.878H128.626C128.645 44.4193 128.85 44.872 129.242 45.236C129.634 45.6 130.134 45.782 130.74 45.782C131.599 45.782 132.187 45.4553 132.504 44.802H134.114C133.9 45.4833 133.489 46.0433 132.882 46.482C132.276 46.9207 131.543 47.14 130.684 47.14ZM130.656 41.148C130.152 41.148 129.718 41.2927 129.354 41.582C129 41.862 128.771 42.2633 128.668 42.786H132.546C132.434 42.2447 132.206 41.8387 131.86 41.568C131.515 41.288 131.114 41.148 130.656 41.148Z" fill="white"/>
</svg>
