<svg width="21" height="23" viewBox="0 0 21 23" fill="none" xmlns="http://www.w3.org/2000/svg">
<path d="M21 10.2844V2.76858C21 1.11067 20.2926 0.44751 18.5353 0.44751H14.07C12.3126 0.44751 11.6052 1.11067 11.6052 2.76858V10.2844C11.6052 11.9423 12.3126 12.6055 14.07 12.6055H18.5353C20.2926 12.6055 21 11.9423 21 10.2844Z" fill="#787878"/>
<path d="M9.39479 12.7158V20.2317C9.39479 21.8896 8.68742 22.5527 6.93004 22.5527H2.46475C0.707372 22.5527 0 21.8896 0 20.2317V12.7158C0 11.0579 0.707372 10.3948 2.46475 10.3948H6.93004C8.68742 10.3948 9.39479 11.0579 9.39479 12.7158Z" fill="#787878"/>
<path d="M21 20.2315V17.1367C21 15.4788 20.2926 14.8157 18.5353 14.8157H14.07C12.3126 14.8157 11.6052 15.4788 11.6052 17.1367V20.2315C11.6052 21.8894 12.3126 22.5526 14.07 22.5526H18.5353C20.2926 22.5526 21 21.8894 21 20.2315Z" fill="#787878"/>
<path d="M9.39479 5.86333V2.76858C9.39479 1.11067 8.68742 0.44751 6.93004 0.44751H2.46475C0.707372 0.44751 0 1.11067 0 2.76858V5.86333C0 7.52123 0.707372 8.1844 2.46475 8.1844H6.93004C8.68742 8.1844 9.39479 7.52123 9.39479 5.86333Z" fill="#787878"/>
</svg>
