<svg width="21" height="23" viewBox="0 0 21 23" fill="none" xmlns="http://www.w3.org/2000/svg">
<path d="M20.9999 10.2843V2.76845C20.9999 1.11055 20.2926 0.447388 18.5352 0.447388H14.0699C12.3125 0.447388 11.6051 1.11055 11.6051 2.76845V10.2843C11.6051 11.9422 12.3125 12.6054 14.0699 12.6054H18.5352C20.2926 12.6054 20.9999 11.9422 20.9999 10.2843Z" fill="#787878"/>
<path d="M9.39479 12.7157V20.2315C9.39479 21.8894 8.68742 22.5526 6.93004 22.5526H2.46475C0.707372 22.5526 0 21.8894 0 20.2315V12.7157C0 11.0578 0.707372 10.3946 2.46475 10.3946H6.93004C8.68742 10.3946 9.39479 11.0578 9.39479 12.7157Z" fill="#787878"/>
<path d="M20.9999 20.2313V17.1366C20.9999 15.4787 20.2926 14.8155 18.5352 14.8155H14.0699C12.3125 14.8155 11.6051 15.4787 11.6051 17.1366V20.2313C11.6051 21.8892 12.3125 22.5524 14.0699 22.5524H18.5352C20.2926 22.5524 20.9999 21.8892 20.9999 20.2313Z" fill="#787878"/>
<path d="M9.39479 5.86321V2.76845C9.39479 1.11055 8.68742 0.447388 6.93004 0.447388H2.46475C0.707372 0.447388 0 1.11055 0 2.76845V5.86321C0 7.52111 0.707372 8.18427 2.46475 8.18427H6.93004C8.68742 8.18427 9.39479 7.52111 9.39479 5.86321Z" fill="#787878"/>
</svg>
