<svg width="21" height="23" viewBox="0 0 21 23" fill="none" xmlns="http://www.w3.org/2000/svg">
<path d="M21 9.8369V2.32107C21 0.663161 20.2926 0 18.5353 0H14.07C12.3126 0 11.6052 0.663161 11.6052 2.32107V9.8369C11.6052 11.4948 12.3126 12.158 14.07 12.158H18.5353C20.2926 12.158 21 11.4948 21 9.8369Z" fill="#0047FF"/>
<path d="M9.39479 12.2683V19.7842C9.39479 21.4421 8.68742 22.1052 6.93004 22.1052H2.46475C0.707372 22.1052 0 21.4421 0 19.7842V12.2683C0 10.6104 0.707372 9.94727 2.46475 9.94727H6.93004C8.68742 9.94727 9.39479 10.6104 9.39479 12.2683Z" fill="#0047FF"/>
<path d="M21 19.784V16.6892C21 15.0313 20.2926 14.3682 18.5353 14.3682H14.07C12.3126 14.3682 11.6052 15.0313 11.6052 16.6892V19.784C11.6052 21.4419 12.3126 22.1051 14.07 22.1051H18.5353C20.2926 22.1051 21 21.4419 21 19.784Z" fill="#0047FF"/>
<path d="M9.39479 5.41582V2.32107C9.39479 0.663162 8.68742 0 6.93004 0H2.46475C0.707372 0 0 0.663162 0 2.32107V5.41582C0 7.07372 0.707372 7.73689 2.46475 7.73689H6.93004C8.68742 7.73689 9.39479 7.07372 9.39479 5.41582Z" fill="#0047FF"/>
</svg>
