<svg width="23" height="23" viewBox="0 0 23 23" fill="none" xmlns="http://www.w3.org/2000/svg">
<path d="M10 3.24219H3C2.46957 3.24219 1.96086 3.4529 1.58579 3.82797C1.21071 4.20305 1 4.71175 1 5.24219V19.2422C1 19.7726 1.21071 20.2813 1.58579 20.6564C1.96086 21.0315 2.46957 21.2422 3 21.2422H17C17.5304 21.2422 18.0391 21.0315 18.4142 20.6564C18.7893 20.2813 19 19.7726 19 19.2422V12.2422" stroke="black" stroke-width="2" stroke-linecap="round" stroke-linejoin="round"/>
<path d="M17.5 1.74241C17.8978 1.34459 18.4374 1.12109 19 1.12109C19.5626 1.12109 20.1022 1.34459 20.5 1.74241C20.8978 2.14024 21.1213 2.6798 21.1213 3.24241C21.1213 3.80502 20.8978 4.34459 20.5 4.74241L11 14.2424L7 15.2424L8 11.2424L17.5 1.74241Z" stroke="black" stroke-width="2" stroke-linecap="round" stroke-linejoin="round"/>
</svg>
