<svg width="21" height="22" viewBox="0 0 21 22" fill="none" xmlns="http://www.w3.org/2000/svg">
<path d="M19.9994 15.7252V18.5855C20.0005 18.851 19.946 19.1138 19.8394 19.3571C19.7328 19.6004 19.5765 19.8188 19.3804 19.9983C19.1844 20.1778 18.9529 20.3145 18.7009 20.3996C18.4489 20.4846 18.1818 20.5162 17.9168 20.4923C14.9772 20.1735 12.1534 19.171 9.67246 17.5653C7.36425 16.1015 5.4073 14.1484 3.94057 11.8448C2.32607 9.3575 1.32133 6.52564 1.00775 3.57861C0.983881 3.31496 1.01528 3.04924 1.09994 2.79836C1.18461 2.54748 1.32069 2.31694 1.49952 2.12142C1.67835 1.92591 1.89601 1.76969 2.13865 1.66273C2.38128 1.55577 2.64358 1.5004 2.90883 1.50015H5.77477C6.2384 1.4956 6.68786 1.65945 7.03938 1.96116C7.39091 2.26288 7.62052 2.68187 7.6854 3.14004C7.80637 4.05539 8.0307 4.95414 8.35413 5.81916C8.48266 6.16041 8.51047 6.53128 8.43428 6.88783C8.35809 7.24437 8.18108 7.57165 7.92423 7.83088L6.71098 9.04172C8.07093 11.4287 10.0512 13.405 12.4429 14.7623L13.6561 13.5514C13.9159 13.2951 14.2438 13.1184 14.601 13.0424C14.9583 12.9663 15.3299 12.9941 15.6718 13.1224C16.5386 13.4451 17.4391 13.669 18.3563 13.7898C18.8203 13.8551 19.2441 14.0884 19.5471 14.4452C19.8501 14.8021 20.011 15.2576 19.9994 15.7252Z" stroke="#787878" stroke-width="1.5" stroke-linecap="round" stroke-linejoin="round"/>
</svg>
