<svg width="21" height="22" viewBox="0 0 21 22" fill="none" xmlns="http://www.w3.org/2000/svg">
<path d="M18.9794 5.95274C18.9794 6.51805 18.6758 7.03101 18.1943 7.29273L16.3727 8.27677L14.8234 9.1038L11.6095 10.8416C11.264 11.03 10.8872 11.1242 10.4998 11.1242C10.1125 11.1242 9.73563 11.03 9.39016 10.8416L2.80541 7.29273C2.32385 7.03101 2.02026 6.51805 2.02026 5.95274C2.02026 5.38744 2.32385 4.87448 2.80541 4.61276L4.86773 3.50309L6.5113 2.61326L9.39016 1.0639C10.0811 0.687032 10.9186 0.687032 11.6095 1.0639L18.1943 4.61276C18.6758 4.87448 18.9794 5.38744 18.9794 5.95274Z" fill="#0047FF"/>
<path d="M8.30161 12.0768L2.17747 9.02C1.70638 8.77922 1.16202 8.81062 0.711866 9.08281C0.261715 9.35499 0 9.83655 0 10.36V16.1491C0 17.1541 0.554836 18.0544 1.45514 18.5046L7.57927 21.5614C7.78865 21.6661 8.01896 21.7184 8.24927 21.7184C8.52145 21.7184 8.79363 21.6451 9.03441 21.4881C9.48456 21.2159 9.74628 20.7344 9.74628 20.2109V14.4218C9.75674 13.4273 9.20191 12.527 8.30161 12.0768Z" fill="#0047FF"/>
<path d="M20.9999 10.3601V16.1493C20.9999 17.1438 20.4451 18.0441 19.5448 18.4942L13.4206 21.5615C13.2113 21.6662 12.981 21.7186 12.7506 21.7186C12.4785 21.7186 12.2063 21.6453 11.955 21.4883C11.5153 21.2161 11.2432 20.7345 11.2432 20.2111V14.4324C11.2432 13.4274 11.798 12.5271 12.6983 12.077L14.9491 10.9568L16.5193 10.1717L18.8224 9.02014C19.2935 8.77936 19.8379 8.8003 20.288 9.08295C20.7277 9.35514 20.9999 9.83669 20.9999 10.3601Z" fill="#0047FF"/>
<path d="M16.3727 8.2768L14.8233 9.10382L4.86768 3.50311L6.51125 2.61328L16.1214 8.03602C16.2261 8.09883 16.3099 8.18258 16.3727 8.2768Z" fill="#0047FF"/>
<path d="M16.5195 10.1716V12.548C16.5195 12.9772 16.1636 13.3332 15.7344 13.3332C15.3052 13.3332 14.9492 12.9772 14.9492 12.548V10.9568L16.5195 10.1716Z" fill="#0047FF"/>
</svg>
