<svg width="50" height="52" viewBox="0 0 50 52" fill="none" xmlns="http://www.w3.org/2000/svg">
<path d="M25.3348 50.5002C38.4408 50.5002 49.1638 39.3565 49.1638 25.7365C49.1638 12.1165 38.4408 0.9729 25.3348 0.9729C12.2289 0.9729 1.50586 12.1165 1.50586 25.7365C1.50586 39.3565 12.2289 50.5002 25.3348 50.5002Z" fill="white" stroke="#0047FF" stroke-width="1.5" stroke-linecap="round" stroke-linejoin="round"/>
<path d="M21.8758 37.719H28.7939C34.559 37.719 36.865 35.3225 36.865 29.3313V22.1418C36.865 16.1506 34.559 13.7542 28.7939 13.7542H21.8758C16.1107 13.7542 13.8047 16.1506 13.8047 22.1418V29.3313C13.8047 35.3225 16.1107 37.719 21.8758 37.719Z" fill="white" stroke="#0047FF" stroke-width="1.5" stroke-linecap="round" stroke-linejoin="round"/>
<path d="M21.876 23.3402C23.1496 23.3402 24.182 22.2673 24.182 20.9437C24.182 19.6202 23.1496 18.5472 21.876 18.5472C20.6024 18.5472 19.5699 19.6202 19.5699 20.9437C19.5699 22.2673 20.6024 23.3402 21.876 23.3402Z" fill="white" stroke="#0047FF" stroke-width="1.5" stroke-linecap="round" stroke-linejoin="round"/>
<path d="M14.577 34.0644L20.2614 30.0982C21.1723 29.4632 22.4867 29.5351 23.3054 30.266L23.6858 30.6135C24.5852 31.4163 26.038 31.4163 26.9374 30.6135L31.7339 26.3358C32.6332 25.5329 34.086 25.5329 34.9854 26.3358L36.8648 28.0133" fill="white"/>
<path d="M14.577 34.0644L20.2614 30.0982C21.1723 29.4632 22.4867 29.5351 23.3054 30.266L23.6858 30.6135C24.5852 31.4163 26.038 31.4163 26.9374 30.6135L31.7339 26.3358C32.6332 25.5329 34.086 25.5329 34.9854 26.3358L36.8648 28.0133" stroke="#0047FF" stroke-width="1.5" stroke-linecap="round" stroke-linejoin="round"/>
</svg>
