<svg width="21" height="21" viewBox="0 0 21 21" fill="none" xmlns="http://www.w3.org/2000/svg">
<path d="M18.9794 5.17149C18.9794 5.7368 18.6758 6.24976 18.1943 6.51148L16.3727 7.49552L14.8234 8.32255L11.6095 10.0603C11.264 10.2488 10.8872 10.343 10.4998 10.343C10.1125 10.343 9.73563 10.2488 9.39016 10.0603L2.80541 6.51148C2.32385 6.24976 2.02026 5.7368 2.02026 5.17149C2.02026 4.60619 2.32385 4.09323 2.80541 3.83151L4.86773 2.72184L6.5113 1.83201L9.39016 0.282652C10.0811 -0.0942175 10.9186 -0.0942175 11.6095 0.282652L18.1943 3.83151C18.6758 4.09323 18.9794 4.60619 18.9794 5.17149Z" fill="#787878"/>
<path d="M8.30161 11.2956L2.17747 8.23875C1.70638 7.99797 1.16202 8.02937 0.711866 8.30156C0.261715 8.57374 0 9.0553 0 9.57873V15.3679C0 16.3729 0.554836 17.2732 1.45514 17.7233L7.57927 20.7801C7.78865 20.8848 8.01896 20.9372 8.24927 20.9372C8.52145 20.9372 8.79363 20.8639 9.03441 20.7069C9.48456 20.4347 9.74628 19.9531 9.74628 19.4297V13.6405C9.75674 12.646 9.20191 11.7457 8.30161 11.2956Z" fill="#787878"/>
<path d="M20.9999 9.57887V15.368C20.9999 16.3625 20.4451 17.2628 19.5448 17.713L13.4206 20.7803C13.2113 20.885 12.981 20.9373 12.7506 20.9373C12.4785 20.9373 12.2063 20.864 11.955 20.707C11.5153 20.4348 11.2432 19.9533 11.2432 19.4298V13.6512C11.2432 12.6462 11.798 11.7459 12.6983 11.2957L14.9491 10.1756L16.5193 9.39044L18.8224 8.23889C19.2935 7.99811 19.8379 8.01905 20.288 8.3017C20.7277 8.57389 20.9999 9.05544 20.9999 9.57887Z" fill="#787878"/>
<path d="M16.3727 7.49555L14.8233 8.32257L4.86768 2.72186L6.51125 1.83203L16.1214 7.25477C16.2261 7.31758 16.3099 7.40133 16.3727 7.49555Z" fill="#787878"/>
<path d="M16.5195 9.39038V11.7668C16.5195 12.196 16.1636 12.5519 15.7344 12.5519C15.3052 12.5519 14.9492 12.196 14.9492 11.7668V10.1755L16.5195 9.39038Z" fill="#787878"/>
</svg>
