<svg width="21" height="22" viewBox="0 0 21 22" fill="none" xmlns="http://www.w3.org/2000/svg">
<path d="M12.6 15.4502C12.6 17.3087 11.7915 18.9887 10.5 20.1332C9.38701 21.1412 7.91701 21.7503 6.30001 21.7503C2.8245 21.7503 0 18.9257 0 15.4502C0 13.314 1.07499 11.4225 2.70668 10.286C2.95565 10.1126 3.29135 10.2319 3.42428 10.5046C4.41248 12.5322 6.24267 14.0512 8.42101 14.6417C9.08251 14.8307 9.77551 14.9252 10.5 14.9252C11.0212 14.9252 11.52 14.8749 12.0047 14.7823C12.2928 14.7273 12.5797 14.9122 12.594 15.2052C12.598 15.2873 12.6 15.3692 12.6 15.4502Z" fill="#787878"/>
<path d="M16.8002 7.05001C16.8002 7.86901 16.6427 8.65651 16.3592 9.37051C15.6347 11.1975 14.0807 12.6045 12.1592 13.1295C11.6342 13.2765 11.0777 13.35 10.5002 13.35C9.9227 13.35 9.3662 13.2765 8.8412 13.1295C6.9197 12.6045 5.3657 11.1975 4.6412 9.37051C4.3577 8.65651 4.2002 7.86901 4.2002 7.05001C4.2002 3.5745 7.0247 0.75 10.5002 0.75C13.9757 0.75 16.8002 3.5745 16.8002 7.05001Z" fill="#787878"/>
<path d="M21 15.4502C21 18.9257 18.1755 21.7503 14.7 21.7503C13.9061 21.7503 13.1428 21.6032 12.4428 21.3326C12.1248 21.2097 12.0655 20.8019 12.2885 20.544C13.5018 19.1412 14.175 17.3373 14.175 15.4502C14.175 15.0932 14.1435 14.7362 14.091 14.4002C14.0598 14.2066 14.1586 14.0162 14.3302 13.9211C15.7288 13.1469 16.8694 11.9581 17.576 10.5055C17.7088 10.2324 18.0448 10.1128 18.2939 10.2864C19.9253 11.4229 21 13.3143 21 15.4502Z" fill="#787878"/>
</svg>
