<svg width="21" height="21" viewBox="0 0 21 21" fill="none" xmlns="http://www.w3.org/2000/svg">
<path d="M12.6 14.7002C12.6 16.5587 11.7915 18.2387 10.5 19.3832C9.38701 20.3912 7.91701 21.0003 6.30001 21.0003C2.8245 21.0003 0 18.1757 0 14.7002C0 12.564 1.07499 10.6725 2.70668 9.53599C2.95565 9.36257 3.29135 9.48189 3.42428 9.75464C4.41248 11.7822 6.24267 13.3012 8.42101 13.8917C9.08251 14.0807 9.77551 14.1752 10.5 14.1752C11.0212 14.1752 11.52 14.1249 12.0047 14.0323C12.2928 13.9773 12.5797 14.1622 12.594 14.4552C12.598 14.5373 12.6 14.6192 12.6 14.7002Z" fill="#0047FF"/>
<path d="M16.8002 6.30001C16.8002 7.11901 16.6427 7.90651 16.3592 8.62051C15.6347 10.4475 14.0807 11.8545 12.1592 12.3795C11.6342 12.5265 11.0777 12.6 10.5002 12.6C9.9227 12.6 9.3662 12.5265 8.8412 12.3795C6.9197 11.8545 5.3657 10.4475 4.6412 8.62051C4.3577 7.90651 4.2002 7.11901 4.2002 6.30001C4.2002 2.8245 7.0247 0 10.5002 0C13.9757 0 16.8002 2.8245 16.8002 6.30001Z" fill="#0047FF"/>
<path d="M21 14.7002C21 18.1757 18.1755 21.0003 14.7 21.0003C13.9061 21.0003 13.1428 20.8532 12.4428 20.5826C12.1248 20.4597 12.0655 20.0519 12.2885 19.794C13.5018 18.3912 14.175 16.5873 14.175 14.7002C14.175 14.3432 14.1435 13.9862 14.091 13.6502V13.6502C14.0598 13.4566 14.1586 13.2662 14.3302 13.1711C15.7288 12.3969 16.8694 11.2081 17.576 9.75547C17.7088 9.4824 18.0448 9.36281 18.2939 9.5364C19.9253 10.6729 21 12.5643 21 14.7002Z" fill="#0047FF"/>
</svg>
