<svg width="21" height="22" viewBox="0 0 21 22" fill="none" xmlns="http://www.w3.org/2000/svg">
<path d="M5.93254 20.6056C5.90104 20.6056 5.85904 20.6266 5.82754 20.6266C3.79054 19.6186 2.13154 17.9491 1.11304 15.9121C1.11304 15.8806 1.13404 15.8386 1.13404 15.8071C2.41504 16.1851 3.73804 16.4686 5.05054 16.6891C5.28154 18.0121 5.55454 19.3246 5.93254 20.6056Z" fill="#787878"/>
<path d="M19.9711 6.74555C18.6481 6.34655 17.3146 6.02105 15.9601 5.79005C15.7396 4.43555 15.4141 3.09155 15.0046 1.77905C17.1781 2.81855 18.9316 4.57205 19.9711 6.74555Z" fill="#787878"/>
<path d="M5.93255 1.89454C5.55455 3.17554 5.28155 4.47754 5.06105 5.80054C3.70655 6.01054 2.36255 6.34654 1.02905 6.74554C2.04755 4.63504 3.73805 2.90254 5.82755 1.86304C5.85905 1.86304 5.90105 1.89454 5.93255 1.89454Z" fill="#787878"/>
<path d="M14.1644 5.5695C11.7284 5.2965 9.27145 5.2965 6.83545 5.5695C7.09795 4.131 7.43395 2.6925 7.90645 1.3065C7.92745 1.2225 7.91695 1.1595 7.92745 1.0755C8.75695 0.876 9.60745 0.75 10.4999 0.75C11.3819 0.75 12.2429 0.876 13.0619 1.0755C13.0724 1.1595 13.0724 1.2225 13.0934 1.3065C13.5659 2.703 13.9019 4.131 14.1644 5.5695Z" fill="#787878"/>
<path d="M4.8195 14.9144C3.3705 14.6519 1.9425 14.3159 0.5565 13.8434C0.4725 13.8224 0.4095 13.8329 0.3255 13.8224C0.126 12.9929 0 12.1424 0 11.2499C0 10.3679 0.126 9.50695 0.3255 8.68795C0.4095 8.67745 0.4725 8.67745 0.5565 8.65645C1.953 8.19445 3.3705 7.84795 4.8195 7.58545C4.557 10.0214 4.557 12.4784 4.8195 14.9144Z" fill="#787878"/>
<path d="M21.0002 11.2499C21.0002 12.1424 20.8742 12.9929 20.6747 13.8224C20.5907 13.8329 20.5277 13.8224 20.4437 13.8434C19.0472 14.3054 17.6192 14.6519 16.1807 14.9144C16.4537 12.4784 16.4537 10.0214 16.1807 7.58545C17.6192 7.84795 19.0577 8.18395 20.4437 8.65645C20.5277 8.67745 20.5907 8.68795 20.6747 8.68795C20.8742 9.51745 21.0002 10.3679 21.0002 11.2499Z" fill="#787878"/>
<path d="M14.1644 16.9304C13.9019 18.3794 13.5659 19.8074 13.0934 21.1934C13.0724 21.2774 13.0724 21.3404 13.0619 21.4244C12.2429 21.6239 11.3819 21.7499 10.4999 21.7499C9.60745 21.7499 8.75695 21.6239 7.92745 21.4244C7.91695 21.3404 7.92745 21.2774 7.90645 21.1934C7.44445 19.7969 7.09795 18.3794 6.83545 16.9304C8.05345 17.0669 9.27145 17.1614 10.4999 17.1614C11.7284 17.1614 12.9569 17.0669 14.1644 16.9304Z" fill="#787878"/>
<path d="M14.4513 15.2013C11.8252 15.5326 9.17446 15.5326 6.54831 15.2013C6.21697 12.5752 6.21697 9.92446 6.54831 7.29831C9.17446 6.96697 11.8252 6.96697 14.4513 7.29831C14.7826 9.92446 14.7826 12.5752 14.4513 15.2013Z" fill="#787878"/>
<path d="M19.8871 15.9226C18.8476 18.0121 17.1151 19.7026 15.0046 20.7211C15.4036 19.3876 15.7396 18.0436 15.9601 16.6891C17.2831 16.4686 18.5851 16.1851 19.8661 15.8071C19.8556 15.8491 19.8871 15.8911 19.8871 15.9226Z" fill="#787878"/>
</svg>
