<svg width="21" height="21" viewBox="0 0 21 21" fill="none" xmlns="http://www.w3.org/2000/svg">
<path d="M5.93254 19.8556C5.90104 19.8556 5.85904 19.8766 5.82754 19.8766C3.79054 18.8686 2.13154 17.1991 1.11304 15.1621C1.11304 15.1306 1.13404 15.0886 1.13404 15.0571C2.41504 15.4351 3.73804 15.7186 5.05054 15.9391C5.28154 17.2621 5.55454 18.5746 5.93254 19.8556Z" fill="#0047FF"/>
<path d="M19.9711 5.99555C18.6481 5.59655 17.3146 5.27105 15.9601 5.04005C15.7396 3.68555 15.4141 2.34155 15.0046 1.02905C17.1781 2.06855 18.9316 3.82205 19.9711 5.99555Z" fill="#0047FF"/>
<path d="M5.93255 1.14454C5.55455 2.42554 5.28155 3.72754 5.06105 5.05054C3.70655 5.26054 2.36255 5.59654 1.02905 5.99554C2.04755 3.88504 3.73805 2.15254 5.82755 1.11304C5.85905 1.11304 5.90105 1.14454 5.93255 1.14454Z" fill="#0047FF"/>
<path d="M14.1644 4.8195C11.7284 4.5465 9.27145 4.5465 6.83545 4.8195C7.09795 3.381 7.43395 1.9425 7.90645 0.5565C7.92745 0.4725 7.91695 0.4095 7.92745 0.3255C8.75695 0.126 9.60745 0 10.4999 0C11.3819 0 12.2429 0.126 13.0619 0.3255C13.0724 0.4095 13.0724 0.4725 13.0934 0.5565C13.5659 1.953 13.9019 3.381 14.1644 4.8195Z" fill="#0047FF"/>
<path d="M4.8195 14.1644C3.3705 13.9019 1.9425 13.5659 0.5565 13.0934C0.4725 13.0724 0.4095 13.0829 0.3255 13.0724C0.126 12.2429 0 11.3924 0 10.4999C0 9.61795 0.126 8.75695 0.3255 7.93795C0.4095 7.92745 0.4725 7.92745 0.5565 7.90645C1.953 7.44445 3.3705 7.09795 4.8195 6.83545C4.557 9.27145 4.557 11.7284 4.8195 14.1644Z" fill="#0047FF"/>
<path d="M21.0002 10.4999C21.0002 11.3924 20.8742 12.2429 20.6747 13.0724C20.5907 13.0829 20.5277 13.0724 20.4437 13.0934C19.0472 13.5554 17.6192 13.9019 16.1807 14.1644C16.4537 11.7284 16.4537 9.27145 16.1807 6.83545C17.6192 7.09795 19.0577 7.43395 20.4437 7.90645C20.5277 7.92745 20.5907 7.93795 20.6747 7.93795C20.8742 8.76745 21.0002 9.61795 21.0002 10.4999Z" fill="#0047FF"/>
<path d="M14.1644 16.1804C13.9019 17.6294 13.5659 19.0574 13.0934 20.4434C13.0724 20.5274 13.0724 20.5904 13.0619 20.6744C12.2429 20.8739 11.3819 20.9999 10.4999 20.9999C9.60745 20.9999 8.75695 20.8739 7.92745 20.6744C7.91695 20.5904 7.92745 20.5274 7.90645 20.4434C7.44445 19.0469 7.09795 17.6294 6.83545 16.1804C8.05345 16.3169 9.27145 16.4114 10.4999 16.4114C11.7284 16.4114 12.9569 16.3169 14.1644 16.1804Z" fill="#0047FF"/>
<path d="M14.4513 14.4513C11.8252 14.7826 9.17446 14.7826 6.54831 14.4513C6.21697 11.8252 6.21697 9.17446 6.54831 6.54831C9.17446 6.21697 11.8252 6.21697 14.4513 6.54831C14.7826 9.17446 14.7826 11.8252 14.4513 14.4513Z" fill="#0047FF"/>
<path d="M19.8871 15.1726C18.8476 17.2621 17.1151 18.9526 15.0046 19.9711C15.4036 18.6376 15.7396 17.2936 15.9601 15.9391C17.2831 15.7186 18.5851 15.4351 19.8661 15.0571C19.8556 15.0991 19.8871 15.1411 19.8871 15.1726Z" fill="#0047FF"/>
</svg>
