<svg width="29" height="29" viewBox="0 0 29 29" fill="none" xmlns="http://www.w3.org/2000/svg">
<path d="M25.1259 16.5249H3.79594C1.77094 16.5249 0.960938 17.3889 0.960938 19.5354V24.9894C0.960938 27.1359 1.77094 27.9999 3.79594 27.9999H25.1259C27.1509 27.9999 27.9609 27.1359 27.9609 24.9894V19.5354C27.9609 17.3889 27.1509 16.5249 25.1259 16.5249Z" stroke="#787878" stroke-width="1.5" stroke-linecap="round" stroke-linejoin="round"/>
<path d="M25.1259 1H3.79594C1.77094 1 0.960938 1.864 0.960938 4.0105V9.4645C0.960938 11.611 1.77094 12.475 3.79594 12.475H25.1259C27.1509 12.475 27.9609 11.611 27.9609 9.4645V4.0105C27.9609 1.864 27.1509 1 25.1259 1Z" stroke="#787878" stroke-width="1.5" stroke-linecap="round" stroke-linejoin="round"/>
</svg>
