<svg width="15" height="16" viewBox="0 0 15 16" fill="none" xmlns="http://www.w3.org/2000/svg">
<path d="M12.21 14C12.21 14.5523 12.6116 15 13.1071 15C13.6025 15 14.0041 14.5523 14.0041 14C14.0041 13.4477 13.6025 13 13.1071 13C12.6116 13 12.21 13.4477 12.21 14Z" stroke="#E8499F" stroke-width="2" stroke-linecap="round" stroke-linejoin="round"/>
<path d="M6.82767 14C6.82767 14.5523 7.22929 15 7.72472 15C8.22016 15 8.62178 14.5523 8.62178 14C8.62178 13.4477 8.22016 13 7.72472 13C7.22929 13 6.82767 13.4477 6.82767 14Z" stroke="#E8499F" stroke-width="2" stroke-linecap="round" stroke-linejoin="round"/>
<path d="M1.44531 14C1.44531 14.5523 1.84694 15 2.34237 15C2.8378 15 3.23943 14.5523 3.23943 14C3.23943 13.4477 2.8378 13 2.34237 13C1.84694 13 1.44531 13.4477 1.44531 14Z" stroke="#E8499F" stroke-width="2" stroke-linecap="round" stroke-linejoin="round"/>
<path d="M12.21 8C12.21 8.55228 12.6116 9 13.1071 9C13.6025 9 14.0041 8.55228 14.0041 8C14.0041 7.44772 13.6025 7 13.1071 7C12.6116 7 12.21 7.44772 12.21 8Z" stroke="#E8499F" stroke-width="2" stroke-linecap="round" stroke-linejoin="round"/>
<path d="M6.82767 8C6.82767 8.55228 7.22929 9 7.72472 9C8.22016 9 8.62178 8.55228 8.62178 8C8.62178 7.44772 8.22016 7 7.72472 7C7.22929 7 6.82767 7.44772 6.82767 8Z" stroke="#E8499F" stroke-width="2" stroke-linecap="round" stroke-linejoin="round"/>
<path d="M1.44531 8C1.44531 8.55228 1.84694 9 2.34237 9C2.8378 9 3.23943 8.55228 3.23943 8C3.23943 7.44772 2.8378 7 2.34237 7C1.84694 7 1.44531 7.44772 1.44531 8Z" stroke="#E8499F" stroke-width="2" stroke-linecap="round" stroke-linejoin="round"/>
<path d="M12.21 2C12.21 2.55228 12.6116 3 13.1071 3C13.6025 3 14.0041 2.55228 14.0041 2C14.0041 1.44772 13.6025 1 13.1071 1C12.6116 1 12.21 1.44772 12.21 2Z" stroke="#E8499F" stroke-width="2" stroke-linecap="round" stroke-linejoin="round"/>
<path d="M6.82767 2C6.82767 2.55228 7.22929 3 7.72472 3C8.22016 3 8.62178 2.55228 8.62178 2C8.62178 1.44772 8.22016 1 7.72472 1C7.22929 1 6.82767 1.44772 6.82767 2Z" stroke="#E8499F" stroke-width="2" stroke-linecap="round" stroke-linejoin="round"/>
<path d="M1.44531 2C1.44531 2.55228 1.84694 3 2.34237 3C2.8378 3 3.23943 2.55228 3.23943 2C3.23943 1.44772 2.8378 1 2.34237 1C1.84694 1 1.44531 1.44772 1.44531 2Z" stroke="#E8499F" stroke-width="2" stroke-linecap="round" stroke-linejoin="round"/>
</svg>
