<svg width="21" height="21" viewBox="0 0 21 21" fill="none" xmlns="http://www.w3.org/2000/svg">
<path d="M18.9955 7.30474C17.096 7.30474 16.3193 5.94865 17.2639 4.28532C17.8096 3.32123 17.4843 2.09227 16.5292 1.54136L14.7136 0.492508C13.8846 -0.00543091 12.8141 0.291214 12.3208 1.12818L12.2054 1.32947C11.2609 2.9928 9.70765 2.9928 8.75262 1.32947L8.63718 1.12818C8.16492 0.291214 7.09445 -0.00543091 6.26537 0.492508L4.44977 1.54136C3.49475 2.09227 3.16941 3.33182 3.71514 4.29592C4.67016 5.94865 3.89355 7.30474 1.994 7.30474C0.902549 7.30474 0 8.20527 0 9.31769V11.1823C0 12.2841 0.892054 13.1953 1.994 13.1953C3.89355 13.1953 4.67016 14.5513 3.71514 16.2147C3.16941 17.1788 3.49475 18.4077 4.44977 18.9586L6.26537 20.0075C7.09445 20.5054 8.16492 20.2088 8.65817 19.3718L8.77361 19.1705C9.71814 17.5072 11.2714 17.5072 12.2264 19.1705L12.3418 19.3718C12.8351 20.2088 13.9055 20.5054 14.7346 20.0075L16.5502 18.9586C17.5052 18.4077 17.8306 17.1682 17.2849 16.2147C16.3298 14.5513 17.1064 13.1953 19.006 13.1953C20.0975 13.1953 21 12.2947 21 11.1823V9.31769C20.9895 8.21586 20.0975 7.30474 18.9955 7.30474ZM10.4948 13.6932C8.61619 13.6932 7.08396 12.1464 7.08396 10.25C7.08396 8.35359 8.61619 6.8068 10.4948 6.8068C12.3733 6.8068 13.9055 8.35359 13.9055 10.25C13.9055 12.1464 12.3733 13.6932 10.4948 13.6932Z" fill="#787878"/>
</svg>
