<svg width="31" height="30" viewBox="0 0 31 30" fill="none" xmlns="http://www.w3.org/2000/svg">
<path d="M1.46094 12.172V10.8C1.46094 3.8 4.26094 1 11.2609 1H19.6609C26.6609 1 29.4609 3.8 29.4609 10.8V19.2C29.4609 26.2 26.6609 29 19.6609 29H18.2609" stroke="#787878" stroke-width="1.5" stroke-linecap="round" stroke-linejoin="round"/>
<path d="M16.8594 13.6008L23.8734 6.57275H18.2594" stroke="#787878" stroke-width="1.5" stroke-linecap="round" stroke-linejoin="round"/>
<path d="M23.875 6.57275V12.1868" stroke="#787878" stroke-width="1.5" stroke-linecap="round" stroke-linejoin="round"/>
<path d="M14.0609 20.8099V24.5899C14.0609 27.7399 12.8009 28.9999 9.65094 28.9999H5.87094C2.72094 28.9999 1.46094 27.7399 1.46094 24.5899V20.8099C1.46094 17.6599 2.72094 16.3999 5.87094 16.3999H9.65094C12.8009 16.3999 14.0609 17.6599 14.0609 20.8099Z" stroke="#787878" stroke-width="1.5" stroke-linecap="round" stroke-linejoin="round"/>
</svg>
