<svg width="18" height="18" viewBox="0 0 18 18" fill="none" xmlns="http://www.w3.org/2000/svg">
<path d="M16.2819 6.49653C14.6537 6.49653 13.988 5.34385 14.7976 3.93002C15.2654 3.11054 14.9865 2.06593 14.1679 1.59766L12.6117 0.706132C11.901 0.282884 10.9835 0.535032 10.5607 1.24645L10.4618 1.41755C9.65217 2.83138 8.32084 2.83138 7.50225 1.41755L7.4033 1.24645C6.9985 0.535032 6.08096 0.282884 5.37031 0.706132L3.81409 1.59766C2.9955 2.06593 2.71664 3.11955 3.18441 3.93903C4.003 5.34385 3.33733 6.49653 1.70915 6.49653C0.773613 6.49653 0 7.26198 0 8.20753V9.79247C0 10.729 0.764618 11.5035 1.70915 11.5035C3.33733 11.5035 4.003 12.6561 3.18441 14.07C2.71664 14.8895 2.9955 15.9341 3.81409 16.4023L5.37031 17.2939C6.08096 17.7171 6.9985 17.465 7.42129 16.7536L7.52024 16.5825C8.32983 15.1686 9.66117 15.1686 10.4798 16.5825L10.5787 16.7536C11.0015 17.465 11.919 17.7171 12.6297 17.2939L14.1859 16.4023C15.0045 15.9341 15.2834 14.8805 14.8156 14.07C13.997 12.6561 14.6627 11.5035 16.2909 11.5035C17.2264 11.5035 18 10.738 18 9.79247V8.20753C17.991 7.27099 17.2264 6.49653 16.2819 6.49653ZM8.9955 11.9267C7.38531 11.9267 6.07196 10.6119 6.07196 9C6.07196 7.38805 7.38531 6.07328 8.9955 6.07328C10.6057 6.07328 11.919 7.38805 11.919 9C11.919 10.6119 10.6057 11.9267 8.9955 11.9267Z" fill="#0047FF"/>
</svg>
