<svg viewBox="0 0 1022 1066.697" xmlns="http://www.w3.org/2000/svg"><path d="M841.835 398.274L646.46 202.9 785.364 62.203c25.035-25.283 59.753-40.938 98.127-40.938 75.956 0 137.587 61.333 138.07 137.175v.046c.045 1.3.07 2.827.07 4.36 0 37.036-14.504 70.684-38.14 95.574l.056-.06-1.013 1.013zM776.25 202.44l66.045 66.045 75.02-74.1c7.61-8.225 12.277-19.27 12.277-31.403 0-.626-.012-1.25-.037-1.87l.003.09v-1.796c-.083-25.356-20.657-45.878-46.024-45.878-12.8 0-24.377 5.224-32.72 13.657l-.004.004zM667.632 93.868l283.235 283.235L344.817 983.2 0 1045.333 61.535 700.15zM820.71 377.103L667.632 224.025 147.048 744.61l-33.092 186.675 186.307-33.598zm-553.215 28.443l-64.987-65.17 188.378-187.873H628.05v92.05H428.902z"/></svg>