<svg width="21" height="22" viewBox="0 0 21 22" fill="none" xmlns="http://www.w3.org/2000/svg">
<path d="M5.46504 16.7001H3.04254C1.68403 16.7001 1 16.0161 1 14.6576V3.54254C1 2.18403 1.68403 1.5 3.04254 1.5H7.12755C8.48606 1.5 9.17003 2.18403 9.17003 3.54254V5.30002" stroke="#787878" stroke-width="1.5" stroke-miterlimit="10" stroke-linecap="round" stroke-linejoin="round"/>
<path d="M15.6014 7.59902V18.2011C15.6014 19.7306 14.8414 20.5001 13.3119 20.5001H7.76384C6.23433 20.5001 5.46484 19.7306 5.46484 18.2011V7.59902C5.46484 6.06951 6.23433 5.30002 7.76384 5.30002H13.3119C14.8414 5.30002 15.6014 6.06951 15.6014 7.59902Z" stroke="#787878" stroke-width="1.5" stroke-miterlimit="10" stroke-linecap="round" stroke-linejoin="round"/>
<path d="M11.832 5.30002V3.54254C11.832 2.18403 12.516 1.5 13.8745 1.5H17.9595C19.318 1.5 20.0021 2.18403 20.0021 3.54254V14.6576C20.0021 16.0161 19.318 16.7001 17.9595 16.7001H15.6035" stroke="#787878" stroke-width="1.5" stroke-miterlimit="10" stroke-linecap="round" stroke-linejoin="round"/>
<path d="M8.60156 10.05H12.4016" stroke="#787878" stroke-width="1.5" stroke-miterlimit="10" stroke-linecap="round" stroke-linejoin="round"/>
<path d="M8.60156 12.9001H12.4016" stroke="#787878" stroke-width="1.5" stroke-miterlimit="10" stroke-linecap="round" stroke-linejoin="round"/>
</svg>
