<svg width="107" height="106" viewBox="0 0 107 106" fill="none" xmlns="http://www.w3.org/2000/svg">
<path d="M53.5 0C24.0215 0 0 23.797 0 53C0 82.203 24.0215 106 53.5 106C82.9785 106 107 82.203 107 53C107 23.797 82.9785 0 53.5 0ZM79.073 40.81L48.7385 70.861C47.9895 71.603 46.973 72.027 45.903 72.027C44.833 72.027 43.8165 71.603 43.0675 70.861L27.927 55.862C26.3755 54.325 26.3755 51.781 27.927 50.244C29.4785 48.707 32.0465 48.707 33.598 50.244L45.903 62.434L73.402 35.192C74.9535 33.655 77.5215 33.655 79.073 35.192C80.6245 36.729 80.6245 39.22 79.073 40.81Z" fill="#0047FF"/>
</svg>
