<svg width="50" height="50" viewBox="0 0 50 50" fill="none" xmlns="http://www.w3.org/2000/svg">
<path d="M25 49C38.2 49 49 38.2 49 25C49 11.8 38.2 1 25 1C11.8 1 1 11.8 1 25C1 38.2 11.8 49 25 49Z" fill="white" stroke="#F73319" stroke-width="1.5" stroke-linecap="round" stroke-linejoin="round"/>
<path d="M16 19.0259H18H34" stroke="#FF1F00" stroke-width="1.5" stroke-linecap="round" stroke-linejoin="round"/>
<path d="M21 19.0259V17.0259C21 16.4955 21.2107 15.9868 21.5858 15.6117C21.9609 15.2367 22.4696 15.0259 23 15.0259H27C27.5304 15.0259 28.0391 15.2367 28.4142 15.6117C28.7893 15.9868 29 16.4955 29 17.0259V19.0259M32 19.0259V33.0259C32 33.5564 31.7893 34.0651 31.4142 34.4402C31.0391 34.8152 30.5304 35.0259 30 35.0259H20C19.4696 35.0259 18.9609 34.8152 18.5858 34.4402C18.2107 34.0651 18 33.5564 18 33.0259V19.0259H32Z" stroke="#FF1F00" stroke-width="1.5" stroke-linecap="round" stroke-linejoin="round"/>
<path d="M27 24.0259V30.0259" stroke="#FF1F00" stroke-width="1.5" stroke-linecap="round" stroke-linejoin="round"/>
<path d="M23 24.0259V30.0259" stroke="#FF1F00" stroke-width="1.5" stroke-linecap="round" stroke-linejoin="round"/>
</svg>
