<svg width="21" height="21" viewBox="0 0 21 21" fill="none" xmlns="http://www.w3.org/2000/svg">
<path d="M12.3205 1.68861L14.169 5.23392C14.421 5.71737 15.0932 6.20082 15.6534 6.2814L19.0002 6.81857C21.1428 7.16773 21.6469 8.64494 20.1065 10.1222L17.5018 12.6334C17.0677 13.0497 16.8157 13.8689 16.9557 14.4598L17.6979 17.5619C18.2861 20.0061 16.9277 20.9595 14.6731 19.6837L11.5363 17.8977C10.9621 17.5754 10.0379 17.5754 9.46373 17.8977L6.31289 19.6703C4.0583 20.9461 2.69994 19.9926 3.2881 17.5485L4.03029 14.4464C4.17033 13.8689 3.91826 13.0497 3.48415 12.62L0.893464 10.1356C-0.646942 8.65837 -0.142809 7.16773 1.99976 6.832L5.34664 6.29483C5.90679 6.20082 6.57896 5.7308 6.83103 5.24735L8.67952 1.70204C9.67378 -0.231768 11.3262 -0.231769 12.3205 1.68861Z" fill="#787878"/>
</svg>
