<svg width="21" height="20" viewBox="0 0 21 20" fill="none" xmlns="http://www.w3.org/2000/svg">
<path d="M12.3205 1.43861L14.169 4.98392C14.421 5.46737 15.0932 5.95082 15.6534 6.0314L19.0002 6.56857C21.1428 6.91773 21.6469 8.39494 20.1065 9.87215L17.5018 12.3834C17.0677 12.7997 16.8157 13.6189 16.9557 14.2098L17.6979 17.3119C18.2861 19.756 16.9277 20.7095 14.6731 19.4337L11.5363 17.6477C10.9621 17.3254 10.0379 17.3254 9.46373 17.6477L6.3129 19.4203C4.0583 20.6961 2.69994 19.7426 3.2881 17.2985L4.03029 14.1964C4.17033 13.6189 3.91826 12.7997 3.48415 12.37L0.893464 9.88558C-0.646943 8.40837 -0.142809 6.91773 1.99976 6.582L5.34664 6.04483C5.90679 5.95082 6.57897 5.4808 6.83103 4.99735L8.67952 1.45204C9.67378 -0.481768 11.3262 -0.481768 12.3205 1.43861Z" fill="#0047FF"/>
</svg>
